<svg xmlns="http://www.w3.org/2000/svg" xmlns:xlink="http://www.w3.org/1999/xlink" width="156" height="76" viewBox="0 0 156 76">
  <defs>
    <clipPath id="clip-path">
      <rect id="mask" width="156" height="76" transform="translate(11 12.669)" fill="none"/>
    </clipPath>
  </defs>
  <g id="alt-design-logo-on-header" transform="translate(-11 -12.669)" clip-path="url(#clip-path)">
    <g id="Group_10973" data-name="Group 10973" transform="translate(-805.305 -456.943)">
      <path id="Path_19377" data-name="Path 19377" d="M927.2,543.673h-6.763V471.536H927.2Z" transform="translate(-47.944 0)" fill="#231f20"/>
      <path id="Path_19378" data-name="Path 19378" d="M956.962,543.673H950.2V471.536h6.763Z" transform="translate(-61.928 0)" fill="#231f20"/>
      <path id="Path_19379" data-name="Path 19379" d="M950.2,531.883V525.12h13.526v6.763Z" transform="translate(-61.928 -25.175)" fill="#231f20"/>
      <path id="Path_19380" data-name="Path 19380" d="M897.434,569.643h-6.763V526.812h6.763Z" transform="translate(-33.96 -25.97)" fill="#231f20"/>
      <path id="Path_19381" data-name="Path 19381" d="M840.93,569.771a22.543,22.543,0,1,1,22.544-22.542A22.567,22.567,0,0,1,840.93,569.771Zm0-39.2a16.662,16.662,0,1,0,16.663,16.663A16.681,16.681,0,0,0,840.93,530.567Z" transform="translate(0 -24.971)" fill="#231f20"/>
      <path id="Path_19382" data-name="Path 19382" d="M998.225,555.182h-.038a3.948,3.948,0,0,1-3.358,1.774,4.343,4.343,0,0,1-4.349-4.655,4.228,4.228,0,0,1,4.311-4.54,4.057,4.057,0,0,1,3.4,1.718h.038v-8.451h.859v15.738h-.859Zm.057-2.976a3.457,3.457,0,0,0-3.529-3.644,3.814,3.814,0,0,0,.057,7.592C997.061,556.154,998.282,554.323,998.282,552.206Z" transform="translate(-80.853 -32.649)" fill="#231f20"/>
      <path id="Path_19383" data-name="Path 19383" d="M1015.1,558.4a3.437,3.437,0,0,0,3.529,3.72,3.526,3.526,0,0,0,3.109-2l.725.421a4.451,4.451,0,1,1-3.948-6.811c2.67,0,4.254,2.138,4.234,4.674Zm6.792-.8a3.413,3.413,0,0,0-6.792,0Z" transform="translate(-92.016 -38.615)" fill="#231f20"/>
      <path id="Path_19384" data-name="Path 19384" d="M1040.691,555.521a1.675,1.675,0,0,0-1.544-.992,1.5,1.5,0,0,0-1.508,1.373c0,2.119,4.293,1.087,4.293,4.273a2.724,2.724,0,0,1-2.843,2.748,3.032,3.032,0,0,1-3.033-2.327l.84-.267a2.242,2.242,0,0,0,2.193,1.793,1.97,1.97,0,0,0,1.984-1.983c0-1.087-.84-1.43-1.717-1.736-1.2-.438-2.575-.954-2.575-2.442a2.287,2.287,0,0,1,2.4-2.232,2.612,2.612,0,0,1,2.251,1.412Z" transform="translate(-102.266 -38.615)" fill="#231f20"/>
      <path id="Path_19385" data-name="Path 19385" d="M1056.448,548.7a.782.782,0,0,1-1.564,0,.782.782,0,1,1,1.564,0Zm-.363,11.3h-.858v-8.813h.858Z" transform="translate(-111.112 -35.888)" fill="#231f20"/>
      <path id="Path_19386" data-name="Path 19386" d="M1074.061,562.312a5.871,5.871,0,0,1-.877,3.738,4.25,4.25,0,0,1-3.51,1.7c-2.308,0-4.215-1.355-4.349-3.777h.858a3.219,3.219,0,0,0,3.415,2.976,3.3,3.3,0,0,0,2.823-1.316,5.67,5.67,0,0,0,.782-3.338V561.2h-.038a4.449,4.449,0,1,1-3.319-7.478,3.921,3.921,0,0,1,3.319,1.718h.038v-1.526h.859Zm-7.745-4.045a3.6,3.6,0,0,0,3.473,3.853c2.251,0,3.471-1.831,3.471-3.948a3.457,3.457,0,0,0-3.529-3.644A3.6,3.6,0,0,0,1066.315,558.267Z" transform="translate(-116.017 -38.615)" fill="#231f20"/>
      <path id="Path_19387" data-name="Path 19387" d="M1091.813,555.291h.038a2.887,2.887,0,0,1,2.613-1.564c2.27,0,2.9,1.412,2.9,3.683v5.321h-.858V557.41c0-1.585-.191-2.882-2.117-2.882-2.214,0-2.576,2.06-2.576,3.854v4.349h-.859v-8.813h.859Z" transform="translate(-128.059 -38.615)" fill="#231f20"/>
      <path id="Path_19388" data-name="Path 19388" d="M999.694,595.189a4.607,4.607,0,1,1-4.635-4.6A4.548,4.548,0,0,1,999.694,595.189Zm-8.355.019A3.749,3.749,0,1,0,995,591.393,3.737,3.737,0,0,0,991.338,595.208Z" transform="translate(-80.853 -55.936)" fill="#231f20"/>
      <path id="Path_19389" data-name="Path 19389" d="M1013.228,593.409h-.859V585.4h-.972v-.8h.972v-3.948a4.849,4.849,0,0,1,.343-2.156,2.209,2.209,0,0,1,1.965-1.068,2.085,2.085,0,0,1,.763.134v.783a4.145,4.145,0,0,0-.706-.115c-1.488,0-1.507,1.488-1.507,2.594V584.6h2.212v.8h-2.212Z" transform="translate(-90.681 -49.748)" fill="#231f20"/>
      <path id="Path_19390" data-name="Path 19390" d="M1025.468,593.409h-.859V585.4h-.972v-.8h.972v-3.948a4.85,4.85,0,0,1,.344-2.156,2.208,2.208,0,0,1,1.965-1.068,2.087,2.087,0,0,1,.763.134v.783a4.157,4.157,0,0,0-.706-.115c-1.488,0-1.507,1.488-1.507,2.594V584.6h2.213v.8h-2.213Z" transform="translate(-96.431 -49.748)" fill="#231f20"/>
      <g id="Group_10972" data-name="Group 10972" transform="translate(934.109 531.578)">
        <path id="Path_19391" data-name="Path 19391" d="M1038.222,585.569a.782.782,0,0,1-1.564,0,.782.782,0,1,1,1.564,0Z" transform="translate(-1036.658 -584.786)" fill="#231f20"/>
        <rect id="Rectangle_608" data-name="Rectangle 608" width="0.859" height="8.813" transform="translate(0.343 3.269)" fill="#231f20"/>
      </g>
      <path id="Path_19392" data-name="Path 19392" d="M1053.273,592.824a4.067,4.067,0,0,0-3.109-1.43,3.8,3.8,0,0,0-.02,7.593,4.242,4.242,0,0,0,3.243-1.583v1.164a4.871,4.871,0,0,1-3.2,1.22,4.6,4.6,0,0,1,.019-9.195,4.621,4.621,0,0,1,3.071,1.087Z" transform="translate(-106.779 -55.936)" fill="#231f20"/>
      <path id="Path_19393" data-name="Path 19393" d="M1067.291,595.266a3.438,3.438,0,0,0,3.529,3.72,3.525,3.525,0,0,0,3.11-2l.724.421a4.451,4.451,0,1,1-3.948-6.811c2.671,0,4.254,2.137,4.235,4.673Zm6.792-.8a3.413,3.413,0,0,0-6.792,0Z" transform="translate(-116.538 -55.936)" fill="#231f20"/>
    </g>
  </g>
</svg>
