<svg xmlns="http://www.w3.org/2000/svg" width="198" height="96" viewBox="0 0 198 96">
  <g id="alt-design-logo-on-footer" transform="translate(-1301.083 -6153.575)">
    <g id="alt-design-logo-on-footer-inner" transform="translate(484.695 5682.464)">
      <path id="Path_19377" data-name="Path 19377" d="M929.223,565.222h-8.787V471.536h8.787Z" transform="translate(-31.784 0)" fill="#fff"/>
      <path id="Path_19378" data-name="Path 19378" d="M958.986,565.222H950.2V471.536h8.787Z" transform="translate(-41.054 0)" fill="#fff"/>
      <path id="Path_19379" data-name="Path 19379" d="M950.2,533.907V525.12h17.573v8.787Z" transform="translate(-41.056 -16.69)" fill="#fff"/>
      <path id="Path_19380" data-name="Path 19380" d="M899.458,582.461h-8.787V526.812h8.787Z" transform="translate(-22.513 -17.239)" fill="#fff"/>
      <path id="Path_19381" data-name="Path 19381" d="M847.676,583.263a29.289,29.289,0,1,1,29.29-29.288A29.32,29.32,0,0,1,847.676,583.263Zm0-50.937a21.648,21.648,0,1,0,21.649,21.649A21.673,21.673,0,0,0,847.676,532.327Z" transform="translate(0 -16.577)" fill="#fff"/>
      <path id="Path_19382" data-name="Path 19382" d="M1000.543,559.417h-.05a5.129,5.129,0,0,1-4.362,2.3c-3.469,0-5.651-2.7-5.651-6.048s2.157-5.9,5.6-5.9a5.271,5.271,0,0,1,4.411,2.232h.05v-10.98h1.116v20.447h-1.116Zm.074-3.866a4.491,4.491,0,0,0-4.585-4.734,4.671,4.671,0,0,0-4.437,4.858c0,2.627,1.736,5.006,4.511,5.006C999.031,560.681,1000.617,558.3,1000.617,555.551Z" transform="translate(-53.601 -21.648)" fill="#fff"/>
      <path id="Path_19383" data-name="Path 19383" d="M1015.355,559.8a4.466,4.466,0,0,0,4.585,4.833,4.581,4.581,0,0,0,4.04-2.6l.942.547a5.585,5.585,0,0,1-5.13,3.1c-3.4,0-5.552-2.75-5.552-6,0-3.2,2.206-5.949,5.552-5.949,3.47,0,5.527,2.777,5.5,6.073Zm8.824-1.042a4.434,4.434,0,0,0-8.824,0Z" transform="translate(-61.001 -25.601)" fill="#fff"/>
      <path id="Path_19384" data-name="Path 19384" d="M1042.078,556.058a2.177,2.177,0,0,0-2.007-1.289,1.95,1.95,0,0,0-1.959,1.784c0,2.753,5.577,1.413,5.577,5.551a3.539,3.539,0,0,1-3.693,3.57,3.939,3.939,0,0,1-3.94-3.023l1.091-.347a2.913,2.913,0,0,0,2.849,2.329,2.56,2.56,0,0,0,2.578-2.577c0-1.413-1.091-1.858-2.231-2.256-1.561-.569-3.346-1.239-3.346-3.173a2.971,2.971,0,0,1,3.123-2.9,3.393,3.393,0,0,1,2.925,1.834Z" transform="translate(-67.795 -25.601)" fill="#fff"/>
      <path id="Path_19385" data-name="Path 19385" d="M1056.916,548.938a1.016,1.016,0,0,1-2.032,0,1.016,1.016,0,1,1,2.032,0Zm-.471,14.681h-1.115v-11.45h1.115Z" transform="translate(-73.67 -23.794)" fill="#fff"/>
      <path id="Path_19386" data-name="Path 19386" d="M1076.675,564.881a7.629,7.629,0,0,1-1.14,4.857,5.523,5.523,0,0,1-4.561,2.206c-3,0-5.477-1.76-5.65-4.908h1.115a4.183,4.183,0,0,0,4.437,3.866,4.288,4.288,0,0,0,3.668-1.71,7.367,7.367,0,0,0,1.016-4.337v-1.414h-.049a5.67,5.67,0,0,1-4.461,2.232c-3.321,0-5.551-2.8-5.551-6a5.7,5.7,0,0,1,5.7-5.949,5.1,5.1,0,0,1,4.313,2.232h.049v-1.983h1.116Zm-10.063-5.255c0,2.627,1.736,5.006,4.512,5.006,2.924,0,4.51-2.379,4.51-5.13a4.491,4.491,0,0,0-4.585-4.734A4.672,4.672,0,0,0,1066.612,559.626Z" transform="translate(-76.918 -25.604)" fill="#fff"/>
      <path id="Path_19387" data-name="Path 19387" d="M1092.07,555.759h.05a3.751,3.751,0,0,1,3.4-2.032c2.949,0,3.766,1.834,3.766,4.785v6.914h-1.115v-6.914c0-2.059-.249-3.744-2.75-3.744-2.876,0-3.346,2.676-3.346,5.007v5.651h-1.116v-11.45h1.116Z" transform="translate(-84.893 -25.601)" fill="#fff"/>
      <path id="Path_19388" data-name="Path 19388" d="M1002.451,596.565a5.986,5.986,0,1,1-6.022-5.973A5.909,5.909,0,0,1,1002.451,596.565Zm-10.856.025a4.871,4.871,0,1,0,4.758-4.957A4.856,4.856,0,0,0,991.6,596.59Z" transform="translate(-53.601 -37.085)" fill="#fff"/>
      <path id="Path_19389" data-name="Path 19389" d="M1013.776,598.193h-1.116V587.784H1011.4v-1.042h1.263v-5.13a6.3,6.3,0,0,1,.446-2.8,2.87,2.87,0,0,1,2.553-1.388,2.709,2.709,0,0,1,.992.174v1.017a5.385,5.385,0,0,0-.917-.15c-1.933,0-1.958,1.934-1.958,3.37v4.908h2.875v1.042h-2.875Z" transform="translate(-60.114 -32.987)" fill="#fff"/>
      <path id="Path_19390" data-name="Path 19390" d="M1026.016,598.193H1024.9V587.784h-1.263v-1.042h1.263v-5.13a6.3,6.3,0,0,1,.446-2.8,2.869,2.869,0,0,1,2.553-1.388,2.71,2.71,0,0,1,.992.174v1.017a5.4,5.4,0,0,0-.917-.15c-1.933,0-1.958,1.934-1.958,3.37v4.908h2.875v1.042h-2.875Z" transform="translate(-63.926 -32.987)" fill="#fff"/>
      <g id="Group_10972" data-name="Group 10972" transform="translate(968.678 549.508)">
        <path id="Path_19391" data-name="Path 19391" d="M1038.69,585.8a1.016,1.016,0,0,1-2.032,0,1.016,1.016,0,1,1,2.032,0Z" transform="translate(-1036.658 -584.786)" fill="#fff"/>
        <rect id="Rectangle_608" data-name="Rectangle 608" width="1.116" height="11.45" transform="translate(0.446 4.247)" fill="#fff"/>
      </g>
      <path id="Path_19392" data-name="Path 19392" d="M1055.55,593.491a5.284,5.284,0,0,0-4.039-1.858,4.937,4.937,0,0,0-.025,9.865,5.511,5.511,0,0,0,4.214-2.057v1.512a6.328,6.328,0,0,1-4.164,1.586,5.974,5.974,0,0,1,.025-11.946,6,6,0,0,1,3.99,1.412Z" transform="translate(-70.787 -37.085)" fill="#fff"/>
      <path id="Path_19393" data-name="Path 19393" d="M1067.548,596.664a4.467,4.467,0,0,0,4.585,4.834,4.58,4.58,0,0,0,4.041-2.6l.941.547a5.585,5.585,0,0,1-5.13,3.1c-3.4,0-5.552-2.75-5.552-6,0-3.2,2.207-5.949,5.552-5.949,3.47,0,5.526,2.777,5.5,6.072Zm8.824-1.041a4.434,4.434,0,0,0-8.824,0Z" transform="translate(-77.263 -37.085)" fill="#fff"/>
    </g>
    <rect id="alt-design-logo-on-footer-area" width="198" height="96" transform="translate(1301.083 6153.575)" fill="none"/>
  </g>
</svg>
