<svg xmlns="http://www.w3.org/2000/svg" xmlns:xlink="http://www.w3.org/1999/xlink" width="366" height="250" viewBox="0 0 366 250">
  <defs>
    <clipPath id="clip-path">
      <rect id="Group_10966-area" data-name="Group 10966-area" width="366" height="250" transform="translate(7 0)" fill="none"/>
    </clipPath>
  </defs>
  <g id="banner-img-mobile" transform="translate(-466.385 -142.193)">
    <g id="Mask_Group_35" data-name="Mask Group 35" transform="translate(459.385 142.193)" clip-path="url(#clip-path)">
      <g id="Group_10966-inner" data-name="Group 10966-inner" transform="translate(3.454 -1.628)">
        <g id="Group_10967" data-name="Group 10967" transform="translate(15 35.374)">
          <circle id="Ellipse_215" data-name="Ellipse 215" cx="32.992" cy="32.992" r="32.992" transform="translate(0 142.028) rotate(-76.717)" fill="#fff"/>
          <circle id="Ellipse_216" data-name="Ellipse 216" cx="25.802" cy="25.802" r="25.802" transform="translate(100.592 146.653) rotate(-77.241)" fill="#fff"/>
          <circle id="Ellipse_217" data-name="Ellipse 217" cx="9.86" cy="9.86" r="9.86" transform="translate(233.08)" fill="#fff"/>
          <ellipse id="Ellipse_222" data-name="Ellipse 222" cx="15.906" cy="8.952" rx="15.906" ry="8.952" transform="translate(135.573 182.296)" fill="#ff9801"/>
          <path id="Path_19232" data-name="Path 19232" d="M44.479,399.48a42.283,42.283,0,0,1-16.354-3.705.48.48,0,0,1-.146-.108c-.107-.055-.221-.1-.322-.162-3.775-2.179-2.507-6.443,2.831-9.525s12.724-3.814,16.5-1.635c.1.06.187.127.283.189a.687.687,0,0,1,.185.083c2.635,1.7,6.175,5.546,6.418,9.442l26.182-15.117,16.975,9.8,11.759-6.789,22.759,13.14c1.152-3.992,5.762-8.244,8.882-10.2a1.015,1.015,0,0,1,.21-.1c.112-.069.213-.144.33-.212,4.352-2.512,11.623-2.388,16.239.277s4.83,6.862.478,9.375c-.118.069-.247.128-.37.192a.787.787,0,0,1-.17.119,54.028,54.028,0,0,1-17.673,5.128l22.716,13.116-35.841,20.693c-.524,1.714-2.168,3.536-4.819,5.066a22.554,22.554,0,0,1-8.775,2.783l-12.274,7.086-.021.012.056.032-.012.007L83.609,438.71l-6.177,3.567a15.525,15.525,0,0,1-5.571,4.03,20.373,20.373,0,0,1-18.142-1.049c-4.48-2.587-4.351-7.78-.362-10.382L49.068,432.4a55.455,55.455,0,0,0,16.074-4.351L48.66,418.532c-2.968,2.193-6.539,5.83-7.538,9.28l-22.858-13.2Zm40.726,7.353a18.339,18.339,0,0,0,15.137.831c2-2.458,1.853-5.023-.8-6.555-.1-.058-.217-.107-.324-.162a.472.472,0,0,0-.145-.108,41.567,41.567,0,0,0-13.986-3.58c-.12.062-.246.12-.361.186C80.369,399.962,80.583,404.165,85.205,406.833Z" transform="translate(-8.336 -237.488)" fill="#ff9801"/>
          <g id="Group_10963" data-name="Group 10963" transform="translate(10.339 97.004)">
            <g id="Group_10954" data-name="Group 10954" transform="translate(29.911 35.213)">
              <path id="Path_19328" data-name="Path 19328" d="M44.5,417.645l-.051,11.248,5.347,2.872,4.4-9.984Z" transform="translate(-42.92 -361.328)" fill="#0086ac"/>
              <path id="Path_19329" data-name="Path 19329" d="M137.51,377.515v11.543l-20.668,3.527-3.2-8.32Z" transform="translate(-27.944 -370.013)" fill="#0086ac"/>
              <path id="Path_19330" data-name="Path 19330" d="M43.211,399.551l.013,11.345H54.56l3.622-8.4Z" transform="translate(-43.187 -365.244)" fill="#0ea1c4"/>
              <path id="Path_19331" data-name="Path 19331" d="M122.148,396.844a51.629,51.629,0,0,0,12.382-4.216.7.7,0,0,0,.164-.116c.119-.062.242-.119.358-.185,4.191-2.419,3.984-6.462-.461-9.028s-11.448-2.686-15.638-.266c-.113.066-.21.136-.317.2a.941.941,0,0,0-.2.1,25.136,25.136,0,0,0-7.316,7.17C114.687,392.8,118.374,394.9,122.148,396.844Z" transform="translate(-28.49 -369.196)" fill="#0086ac"/>
              <g id="Group_10953" data-name="Group 10953" transform="translate(0 11.309)">
                <path id="Path_19332" data-name="Path 19332" d="M132.211,397.707c.916-.089,1.839-.215,2.76-.37q-4.985-2.629-9.733-5.671a9.558,9.558,0,0,0-.661,1.634l-21.916-12.654L77.345,395.262a40.717,40.717,0,0,1,15.962,3.571.471.471,0,0,1,.14.1c.1.052.213.1.31.156,3.63,2.1,2.411,6.2-2.722,9.161s-12.237,3.667-15.867,1.572c-.1-.057-.18-.122-.272-.181a.642.642,0,0,1-.176-.079c-2.565-1.657-6.026-5.423-6.187-9.216l-25.3,14.609-.013-.007-.024.015.038.022,10.994,6.347,18.626-.556v11.309l21.835,12.606.011-.006-.054-.032.019-.011L119.852,430.1a40.706,40.706,0,0,1-15.728-3.564.451.451,0,0,1-.139-.1c-.1-.052-.214-.1-.311-.156-3.63-2.1-2.411-6.2,2.722-9.161s12.237-3.668,15.867-1.572c.1.057.18.122.272.181a.635.635,0,0,1,.178.079c2.534,1.637,5.939,5.334,6.172,9.081l25.2-14.55Z" transform="translate(-43.191 -380.645)" fill="#0ea1c4"/>
                <path id="Path_19333" data-name="Path 19333" d="M53.953,414.195l10.8,6.237a52.129,52.129,0,0,0-16.783,4.912.727.727,0,0,0-.164.114c-.118.063-.242.119-.356.185-4.191,2.421-3.985,6.463.461,9.03s11.447,2.686,15.638.266c.113-.066.21-.136.317-.2a.99.99,0,0,0,.2-.1c2.971-1.865,7.334-5.885,8.508-9.69V413.639Z" transform="translate(-42.921 -373.504)" fill="#0086ac"/>
              </g>
              <path id="Path_19334" data-name="Path 19334" d="M71.268,383.551v11.31l9.13-2.342,9.788-6.753L84.607,382.5Z" transform="translate(-37.114 -368.934)" fill="#0ea1c4"/>
              <path id="Path_19335" data-name="Path 19335" d="M64.139,432.578a.932.932,0,0,0,.2-.1c2.971-1.865,7.334-5.884,8.508-9.689L94.683,435.4l.012-.007-.055-.03.019-.012L119.854,420.8a40.684,40.684,0,0,1-15.73-3.564.431.431,0,0,1-.139-.1c-.1-.052-.214-.1-.311-.155-3.63-2.1-2.411-6.2,2.722-9.161s12.237-3.668,15.867-1.573c.1.057.18.122.272.181a.672.672,0,0,1,.178.08c2.534,1.636,5.939,5.334,6.172,9.081l25.2-14.55-21.875-12.63a52,52,0,0,0,17.019-4.939.7.7,0,0,0,.164-.114c.119-.062.242-.119.358-.185,4.191-2.421,3.984-6.463-.461-9.03s-11.448-2.686-15.638-.265c-.113.064-.21.136-.317.2a.947.947,0,0,0-.2.1c-3,1.887-7.443,5.98-8.554,9.826l-21.916-12.654L77.345,385.965a40.711,40.711,0,0,1,15.962,3.571.472.472,0,0,1,.14.1c.1.052.213.1.31.156,3.63,2.095,2.411,6.2-2.722,9.16s-12.237,3.668-15.867,1.573c-.1-.057-.18-.122-.272-.181a.721.721,0,0,1-.176-.079c-2.565-1.657-6.026-5.423-6.187-9.216l-25.3,14.609-.013-.007-.024.015.038.021,21.8,12.585a52.1,52.1,0,0,0-16.783,4.912.693.693,0,0,0-.164.114c-.118.062-.242.119-.356.185-4.191,2.419-3.985,6.462.461,9.028s11.447,2.687,15.638.266C63.935,432.717,64.032,432.645,64.139,432.578Z" transform="translate(-43.191 -371.348)" fill="#32c1d7"/>
              <path id="Path_19336" data-name="Path 19336" d="M113.639,410.305v11.31l25.2-14.549v-11.31Z" transform="translate(-27.944 -366.066)" fill="#0086ac"/>
              <path id="Path_19337" data-name="Path 19337" d="M110.7,412v11.31L85.487,437.87l.02-11.321Z" transform="translate(-34.037 -362.549)" fill="#0086ac"/>
            </g>
            <g id="Group_10956" data-name="Group 10956" transform="translate(0 23.348)">
              <g id="Group_10955" data-name="Group 10955" transform="translate(0 11.309)">
                <path id="Path_19338" data-name="Path 19338" d="M108.936,412.5l20.616-11.9-.091-.054-.019.012.054.03-.011.007-21.835-12.606c-1.174,3.8-5.537,7.824-8.506,9.689a1,1,0,0,1-.2.1c-.107.067-.2.137-.317.2-4.192,2.419-11.192,2.3-15.638-.266s-4.653-6.609-.461-9.028c.114-.066.238-.123.356-.185a.761.761,0,0,1,.164-.116,52.132,52.132,0,0,1,16.783-4.911l-21.8-12.585L52.848,385.43c-.235-3.748-3.64-7.445-6.173-9.082a.67.67,0,0,0-.178-.079c-.091-.06-.173-.124-.272-.181-3.629-2.1-10.733-1.392-15.866,1.572s-6.353,7.066-2.724,9.161c.1.057.208.1.311.156a.45.45,0,0,0,.139.1,40.69,40.69,0,0,0,15.73,3.564L18.6,405.2l21.983,12.692c1.113-3.843,5.548-7.932,8.551-9.819a.972.972,0,0,1,.2-.1c.106-.068.2-.139.316-.2,4.192-2.419,11.194-2.3,15.638.266s4.652,6.609.461,9.028c-.114.067-.238.123-.356.185a.76.76,0,0,1-.164.116A52.036,52.036,0,0,1,48.227,422.3L70.094,434.93l25.322-14.62V409Z" transform="translate(-18.602 -370.891)" fill="#cc3e00"/>
                <path id="Path_19339" data-name="Path 19339" d="M87.936,422.745a.631.631,0,0,0,.178.079c.091.061.173.124.272.181,3.63,2.1,10.732,1.392,15.866-1.572s6.353-7.065,2.724-9.161c-.1-.056-.208-.1-.311-.156a.45.45,0,0,0-.139-.1,40.7,40.7,0,0,0-15.962-3.57l4.706-2.717-13.519-3.5v11.309C81.909,417.322,85.371,421.088,87.936,422.745Z" transform="translate(-4.935 -364.111)" fill="#ea4e00"/>
              </g>
              <path id="Path_19340" data-name="Path 19340" d="M106.065,403.257v12.153l-6.273,3.622-4.5-10.18Z" transform="translate(-2.005 -352.577)" fill="#ea4e00"/>
              <path id="Path_19341" data-name="Path 19341" d="M88.262,371.939v11.31L73.7,380.392l-1.664-8.453Z" transform="translate(-7.038 -359.355)" fill="#cc3e00"/>
              <path id="Path_19342" data-name="Path 19342" d="M112.25,385.984v11.31l-12.073,1.055s-2.643-8.956-2.056-9.1S112.25,385.984,112.25,385.984Z" transform="translate(-1.411 -356.315)" fill="#cc3e00"/>
              <path id="Path_19343" data-name="Path 19343" d="M24.323,371.972v11.675l7.235,1.142S36.844,375,37.04,374.708,24.323,371.972,24.323,371.972Z" transform="translate(-17.364 -359.348)" fill="#cc3e00"/>
              <path id="Path_19344" data-name="Path 19344" d="M49.137,398.776a.921.921,0,0,1,.2-.1c.106-.067.2-.137.316-.2,4.192-2.419,11.194-2.3,15.638.266s4.652,6.609.461,9.028c-.114.066-.238.123-.356.185a.718.718,0,0,1-.164.114,52,52,0,0,1-17.008,4.937l21.868,12.625,25.322-14.62c.159,3.793,3.621,7.559,6.186,9.216a.709.709,0,0,0,.178.079c.091.06.173.124.272.181,3.63,2.1,10.733,1.392,15.866-1.572s6.353-7.066,2.724-9.161c-.1-.057-.208-.1-.311-.156a.45.45,0,0,0-.139-.1,40.723,40.723,0,0,0-15.962-3.571l25.322-14.62-.091-.052-.019.011.055.032-.012.006-21.835-12.606c-1.174,3.8-5.537,7.825-8.506,9.69a1,1,0,0,1-.2.1c-.107.068-.2.139-.317.2-4.192,2.419-11.192,2.3-15.638-.266s-4.652-6.609-.461-9.028c.114-.067.238-.124.356-.186a.757.757,0,0,1,.164-.114,52.1,52.1,0,0,1,16.783-4.912l-21.8-12.584L52.848,376.132c-.235-3.747-3.64-7.445-6.173-9.081a.633.633,0,0,0-.178-.079c-.091-.061-.173-.124-.272-.181-3.629-2.1-10.733-1.392-15.866,1.572s-6.353,7.065-2.724,9.161c.1.056.208.1.311.156a.45.45,0,0,0,.139.1,40.734,40.734,0,0,0,15.73,3.564L18.6,395.9,40.585,408.6C41.7,404.753,46.133,400.662,49.137,398.776Z" transform="translate(-18.602 -361.594)" fill="#ff5c03"/>
              <path id="Path_19345" data-name="Path 19345" d="M64.823,416.485,42.956,403.86v11.31l21.867,12.625Z" transform="translate(-13.331 -352.447)" fill="#ea4e00"/>
              <path id="Path_19346" data-name="Path 19346" d="M40.585,402.491V413.8L18.6,401.109V389.8Z" transform="translate(-18.602 -355.49)" fill="#ea4e00"/>
            </g>
            <g id="Group_10959" data-name="Group 10959" transform="translate(113.747 14.413)">
              <path id="Path_19347" data-name="Path 19347" d="M128.985,386.063a10.845,10.845,0,0,1,3.71-1.407,32.276,32.276,0,0,1-.667-3.258,34.227,34.227,0,0,0-4.44-12.926c-2.389-3.86-4.321-2.8-4.321-2.8-5.1,1.8,2.134,13.333,2.134,13.333a19.22,19.22,0,0,1,3.068,4.784Q128.73,384.974,128.985,386.063Z" transform="translate(-110.091 -351.805)" fill="#ffa08d"/>
              <g id="Group_10957" data-name="Group 10957" transform="translate(26.793 47.838)">
                <path id="Path_19348" data-name="Path 19348" d="M140.243,408.137c.657-5.662.639-9.159.888-12.512-1.349-2.219-3.849-2.181-6.51-1.935.09,1.187.154,2.355.176,3.427.069,3.354.642,11.59.49,16.7a12.14,12.14,0,0,1-.844,2.973c-.27,1.244,1.632,1.866,1.632,1.866.71,1.35,1.652,2.585,2.8,2.833,2.749.595,3.282-2.039,2.247-4.275,0,0-.555-.536-1.448-3.243C139.555,413.6,140.188,408.61,140.243,408.137Z" transform="translate(-134.077 -393.576)" fill="#ffa08d"/>
                <path id="Path_19349" data-name="Path 19349" d="M135.065,411.375s-.524,1.123-.865,2,.774,2.562,1.71,3.456a46.723,46.723,0,0,0,3.9,3.38c1.775,1.4,4.686,2.755,6.063,1.709,1.337-1.017.221-3.334-.937-4.947a53.357,53.357,0,0,0-4.393-4.738,1.362,1.362,0,0,1-.679,2.188,3.244,3.244,0,0,1-3.584-1.049A8.657,8.657,0,0,1,135.065,411.375Z" transform="translate(-134.137 -389.724)" fill="#1e1e1e"/>
                <path id="Path_19350" data-name="Path 19350" d="M135.9,413.328a33.559,33.559,0,0,0,4.028,3.681c2.312,1.777,3.612,1.78,4.627,1.278,1.7-.836-4.636-6.667-4.636-6.667S138.493,411.4,135.9,413.328Z" transform="translate(-133.755 -389.672)" fill="#ffcb37"/>
                <path id="Path_19351" data-name="Path 19351" d="M141.256,412.717a9.588,9.588,0,0,0-3.6,1.521c-1.448,1.126-1.572,1.486-1.572,1.486l.579.633a9.124,9.124,0,0,1,2.783-2.219,8.306,8.306,0,0,1,2.419-.794Z" transform="translate(-133.716 -389.433)" fill="#1e1e1e"/>
              </g>
              <g id="Group_10958" data-name="Group 10958" transform="translate(16.333 53.916)">
                <path id="Path_19352" data-name="Path 19352" d="M131.645,413.133c.656-5.662.637-9.158.887-12.512-1.349-2.218-3.849-2.181-6.51-1.935.09,1.187.154,2.356.176,3.427.071,3.354.642,11.591.49,16.7a12.094,12.094,0,0,1-.843,2.973c-.271,1.244,1.632,1.866,1.632,1.866.709,1.35,1.652,2.585,2.8,2.833,2.749.595,3.283-2.039,2.248-4.275,0,0-.556-.536-1.449-3.243C130.956,418.593,131.59,413.606,131.645,413.133Z" transform="translate(-125.478 -398.572)" fill="#ffa08d"/>
                <path id="Path_19353" data-name="Path 19353" d="M126.466,416.371s-.524,1.123-.865,2,.774,2.563,1.712,3.456a46.433,46.433,0,0,0,3.9,3.38c1.776,1.4,4.686,2.756,6.064,1.709,1.337-1.017.22-3.334-.938-4.947a53.223,53.223,0,0,0-4.391-4.738,1.362,1.362,0,0,1-.68,2.188,3.243,3.243,0,0,1-3.582-1.049A8.632,8.632,0,0,1,126.466,416.371Z" transform="translate(-125.538 -394.72)" fill="#1e1e1e"/>
                <path id="Path_19354" data-name="Path 19354" d="M127.3,418.324a33.608,33.608,0,0,0,4.026,3.681c2.312,1.777,3.613,1.78,4.627,1.278,1.7-.836-4.635-6.667-4.635-6.667S129.9,416.4,127.3,418.324Z" transform="translate(-125.156 -394.668)" fill="#ffcb37"/>
                <path id="Path_19355" data-name="Path 19355" d="M132.657,417.713a9.578,9.578,0,0,0-3.6,1.521c-1.449,1.126-1.573,1.486-1.573,1.486l.579.633a9.125,9.125,0,0,1,2.783-2.219,8.355,8.355,0,0,1,2.419-.794Z" transform="translate(-125.117 -394.429)" fill="#1e1e1e"/>
              </g>
              <path id="Path_19356" data-name="Path 19356" d="M114.306,396.96c-.369,4.694,3.046,7.582,7.919,10.136a8.643,8.643,0,0,1,3.076,2.7c.82.982.054,2.48.785,3.6,1.929.607,6.029,2.516,10.037.758,6.418-2.815,10.1-4.884,11.021-7.715.435-1.342-.636-7.769-1.654-8.6a44.292,44.292,0,0,0-7.575-4.368c-4.017-1.978-6.206-2.709-7.342-3.789a15.073,15.073,0,0,1,.091-6.878,9.214,9.214,0,0,0-.421-6.709c-1.241-3.047-4.455-9.326-4.455-9.326l-8.031,1.722-4.5,3.912s1.921,11.972,2.367,14.77C116.2,390.765,114.617,392.979,114.306,396.96Z" transform="translate(-111.864 -351.539)" fill="#ffcb37"/>
              <path id="Path_19357" data-name="Path 19357" d="M123.836,368.117l.714,5.035s-2.634,2.788-5.069.575-2.761-3.208-2.761-3.208l1.427-6.794Z" transform="translate(-111.114 -352.198)" fill="#ffa08d"/>
              <path id="Path_19358" data-name="Path 19358" d="M127.208,358.334s1.145,3.467.5,11.448a16.009,16.009,0,0,1-1.7,5.864s-1.718-4.753-4.183-6.322c-1.736-1.1.864-3.172.864-3.172Z" transform="translate(-110.138 -353.365)" fill="#1e1e1e"/>
              <path id="Path_19359" data-name="Path 19359" d="M117.717,356.894a5.978,5.978,0,0,1,9.526,2.534c2.379,5.508-2.247,12.906-5.049,11.894-1.57-.567-4.939-2.73-6.043-5.639C114.906,362.407,116.1,358.312,117.717,356.894Z" transform="translate(-111.349 -353.984)" fill="#ffc5b3"/>
              <path id="Path_19360" data-name="Path 19360" d="M123.253,359.8a11.764,11.764,0,0,1-1.478,6.251c-1.7,2.61-1.735,4.968-1.676,7.645.1,4.65,1.344,6.038,1.344,6.038a10.359,10.359,0,0,1-6.476-8.835c-.611-6.561-.477-11.737,1.214-14.183,1.539-2.227,4.6-1.692,4.6-1.692s3.972-2.958,7.241,2.7a7.353,7.353,0,0,1,.094,6.667A10.328,10.328,0,0,0,123.253,359.8Z" transform="translate(-111.565 -354.249)" fill="#1e1e1e"/>
              <path id="Path_19361" data-name="Path 19361" d="M134.329,391.8s-2.085-7.165-3.165-11.327a10.273,10.273,0,0,0-2.107.674,7.262,7.262,0,0,0-1.566.876,71.134,71.134,0,0,0,4.389,11.527c-.335,1.152-1.918,3.461-1.437,4.028.647.761,1.26.465,1.26.465s1.052,1.3,1.793,1.2,2.312-.924,2.126-2.312S134.329,391.8,134.329,391.8Z" transform="translate(-108.783 -348.572)" fill="#ffa08d"/>
              <path id="Path_19362" data-name="Path 19362" d="M123.586,404.907a15.48,15.48,0,0,0,8.641.83c4.5-1,12.871-7.165,12.871-7.165s.325,3.6-.435,4.625-2.646.39-2.891,1.3a3.541,3.541,0,0,1-2.008,2.947c-1.108.581-3.43.192-4.062.557s-1.1,1.929-2.108,2.188c-2.429.62-3.545-.924-4.414-.926s-1.764,1.157-3.253.926a8.835,8.835,0,0,1-2.77-1.477Z" transform="translate(-109.721 -344.656)" fill="#ff5c03"/>
              <path id="Path_19363" data-name="Path 19363" d="M115.309,385.663a15.044,15.044,0,0,0,6.953,1.364,26.977,26.977,0,0,0,7.7-2.694l.209,1.552a18.34,18.34,0,0,1-7.352,2.621,10.145,10.145,0,0,1-7.687-1.479Z" transform="translate(-111.458 -347.738)" fill="#ff5c03"/>
              <path id="Path_19364" data-name="Path 19364" d="M113.984,371.06a4.274,4.274,0,0,0-1.817,2.349c-.331,1.456.827,7.685,3.087,11.984a27.225,27.225,0,0,0,3.481,5.824,32.137,32.137,0,0,0,8.7,6.9,25.574,25.574,0,0,1,5.293,4.088c1.378,1.157,4.133,1.377,4.079-.111s-1.91-3.16-3.16-3.978a28.956,28.956,0,0,0-4.473-1.921s-6.046-7.763-7.084-8.747-2.2-4.731-2.591-6.412C118.4,376.354,115.967,371.609,113.984,371.06Z" transform="translate(-112.111 -350.611)" fill="#ffa08d"/>
            </g>
            <g id="Group_10962" data-name="Group 10962" transform="translate(10.848)">
              <path id="Path_19365" data-name="Path 19365" d="M47.845,352.586a19.267,19.267,0,0,0-3.35,4.421,51.323,51.323,0,0,1-5.48,8.124c-1.413,1.53-2.674,5.946-2.416,7.521s2.945,5.8,2.945,5.8,2.835-8.221,3.474-8.936,3.917-5.733,5.784-8.5Z" transform="translate(-25.562 -340.196)" fill="#ffa08d"/>
              <path id="Path_19366" data-name="Path 19366" d="M54.953,353.519s5.783,2.281,8.222,7.255,2.061,16.215,2.3,19.071-3.945,3.573-6.771,4.4a9.221,9.221,0,0,1-7.518-.917,50.208,50.208,0,0,1-5.2-4.434s3.848-2.8,2.349-6.239c-1.635-3.748-3.214-9.3-3.172-11.29a21.878,21.878,0,0,1,2.216-8.776Z" transform="translate(-23.702 -340.196)" fill="#dd4599"/>
              <path id="Path_19367" data-name="Path 19367" d="M48.478,361.319c-2.4.126-2.426,4.144-.322,6.737,2.482,3.056,6.2,2.632,5.665-1.452S50.2,361.228,48.478,361.319Z" transform="translate(-23.385 -338.307)" fill="#c62a87"/>
              <path id="Path_19368" data-name="Path 19368" d="M66.1,378.972a12.676,12.676,0,0,1-2.371,6.127c-2,2.883-4.776,3.609-7.868,3.065-2.475-.435-6.068-2.626-8.021-4.237a42.943,42.943,0,0,1-6.576-6.476L39.326,365.42a4.855,4.855,0,0,1,4.142.476c.993.684,1.8,1.513,2.96,2.43.4.319.4-.044.926,0,4.56.349,9.214,4.153,10.5,5.313a20.633,20.633,0,0,1,4.6,6.463A12.3,12.3,0,0,0,66.1,378.972Z" transform="translate(-24.965 -337.475)" fill="#1e1e1e"/>
              <g id="Group_10961" data-name="Group 10961" transform="translate(18.842)">
                <g id="Group_10960" data-name="Group 10960">
                  <path id="Path_19369" data-name="Path 19369" d="M48.766,354.378l-.607,4.284s2.242,2.372,4.313.489,2.35-2.728,2.35-2.728l-1.215-5.782Z" transform="translate(-41.896 -340.617)" fill="#ffa08d"/>
                  <path id="Path_19370" data-name="Path 19370" d="M52.464,344.624a5.516,5.516,0,0,0-8.521,3.181c-1.692,5.271,3.22,11.651,5.705,10.471,1.39-.662,4.289-2.95,5.043-5.722C55.54,349.435,54.078,345.781,52.464,344.624Z" transform="translate(-42.883 -342.13)" fill="#ffc5b3"/>
                  <path id="Path_19371" data-name="Path 19371" d="M43.7,349.745A4.328,4.328,0,0,0,48.326,351c4.051-1.107,5.116-.391,5.728-.081.691.349.764,1.906.764,1.906a5.665,5.665,0,0,0,1.213-5.141c-.489-1.932-3.225-5.694-6.874-5.248s-5.707,2.928-6.1,5.034A2.572,2.572,0,0,0,43.7,349.745Z" transform="translate(-43.01 -342.4)" fill="#1e1e1e"/>
                </g>
              </g>
              <path id="Path_19372" data-name="Path 19372" d="M60.121,356.934a4.65,4.65,0,0,0-3.059,2.617c-.781,2.075-.272,7.584-.31,8.62a44.434,44.434,0,0,0,.589,4.709s-6.729,5.446-8.894,6.7-7.631-4.015-8.828-3.469-.523,4.694,1.213,5.581,4.967,1.258,8.915,1.091c6.341-.27,12.245-5.682,12.862-6.485s.483-10.77.459-13.362S62.856,356.8,60.121,356.934Z" transform="translate(-25.032 -339.255)" fill="#ffc5b3"/>
              <path id="Path_19373" data-name="Path 19373" d="M46.6,368.071c-2.618,1.137-4.018,9.2-5.163,13.995-1.128,4.725-2.18,9.863-2.913,11.3s-3.3,2.877-5.5,5.549.532,3.088,2.79,2.934c1.849-.126,2.665-1.816,3.97-3.115,1.282-1.276,2.423-1.085,2.775-2.259.366-1.225.062-2,.706-3.222,2.068-3.922,5.311-9.975,6.271-11.854a21.391,21.391,0,0,0,2.618-8.776C52.331,369.511,49.47,366.824,46.6,368.071Z" transform="translate(-26.504 -336.912)" fill="#ffc5b3"/>
              <path id="Path_19374" data-name="Path 19374" d="M41.194,365.642c-2.509,1.359-3.824,8.486-4.97,13.285-1.128,4.726-1.954,9.849-2.687,11.291s-3.2,1.977-5.4,4.649a1.691,1.691,0,0,0-.282,2.321c.485.988,1.394,1.967,2.137,1.648,1.7-.73,2.665-2.219,3.97-3.518,1.282-1.276,2.423-1.085,2.775-2.259.365-1.225.062-2,.706-3.222,2.068-3.922,5.311-9.975,6.271-11.854,1.471-2.879,2.553-5.3,2.73-8.469C46.62,366.4,43.336,364.481,41.194,365.642Z" transform="translate(-27.52 -337.444)" fill="#ffa08d"/>
            </g>
          </g>
        </g>
        <g id="Group_10971" data-name="Group 10971" transform="translate(2 15)">
          <circle id="Ellipse_219" data-name="Ellipse 219" cx="28.559" cy="28.559" r="28.559" transform="translate(170.041 62.732)" fill="#fff"/>
          <circle id="Ellipse_220" data-name="Ellipse 220" cx="30.899" cy="30.899" r="30.899" transform="matrix(0.227, -0.974, 0.974, 0.227, 80.802, 60.181)" fill="#fff"/>
          <ellipse id="Ellipse_223" data-name="Ellipse 223" cx="19.171" cy="10.79" rx="19.171" ry="10.79" transform="translate(192.702 153.672)" fill="#ff9801"/>
          <ellipse id="Ellipse_224" data-name="Ellipse 224" cx="15.785" cy="8.884" rx="15.785" ry="8.884" transform="translate(100.216 102.55)" fill="#ff9801"/>
          <g id="Group_10952" data-name="Group 10952" transform="translate(98.518 4.549)">
            <g id="Group_10947" data-name="Group 10947" transform="translate(0 12.348)">
              <path id="Path_19286" data-name="Path 19286" d="M145.213,350.064,141.05,352.6s1.692,4.147,4.163,4.838,3.715-.415,3.715-.415Z" transform="translate(-141.05 -307.309)" fill="#1096e8"/>
              <path id="Path_19287" data-name="Path 19287" d="M148.526,346s-4.821-1.581-5.451.994a9.408,9.408,0,0,0,1.736,7.272c1.14,1.167,3.715,0,3.715,0Z" transform="translate(-140.649 -308.292)" fill="#0ea1c4"/>
              <g id="Group_10946" data-name="Group 10946" transform="translate(2.427 4.589)">
                <path id="Path_19288" data-name="Path 19288" d="M170.942,344.5c-1.2-.752-2.432-1.555-3.663-2.445-1.522-1.1-4.369-6.445-6.241-8.9a9.687,9.687,0,0,0-5.159-3.132c-4.684,1.652,1.114,10.947,1.114,10.947s5.075,3.942,6.564,5.069c2.149,1.626,3.751,1.348,6.818,1.233A22.168,22.168,0,0,0,170.942,344.5Z" transform="translate(-140.663 -316.234)" fill="#ffc5b3"/>
                <g id="Group_10944" data-name="Group 10944" transform="translate(13.407 48.257)">
                  <path id="Path_19289" data-name="Path 19289" d="M162.043,370.247c-.148,2.8-1.317,11.541-1.426,16.817-.063,3.029.889,4.251.889,4.251,1,2.162.485,4.706-2.171,4.131-1.112-.24-2.023-1.433-2.709-2.738l-1.668-.088s.545-15.335.432-20.725a128.349,128.349,0,0,0-1.323-13.3l7.226-.234A113.177,113.177,0,0,1,162.043,370.247Z" transform="translate(-154.067 -358.359)" fill="#ffc5b3"/>
                </g>
                <path id="Path_19290" data-name="Path 19290" d="M161.348,385.887s2.2,2.249,3.528,3.81,1.58,3.224.6,4.127c-1.248,1.15-3,1.214-6.422-1.468a13.889,13.889,0,0,1-4.254-5.164l.2-3.749s2.046,5.248,5.1,4.974C162.366,388.215,161.348,385.887,161.348,385.887Z" transform="translate(-140.501 -304.674)" fill="#32c1d7"/>
                <path id="Path_19291" data-name="Path 19291" d="M153.969,374.728c-.147,2.8-1.316,11.54-1.426,16.817-.062,3.028.89,4.25.89,4.25,1,2.162.485,4.706-2.171,4.132-1.113-.241-2.023-1.434-2.709-2.738l-1.668-.089s.544-15.335.432-20.725a128.243,128.243,0,0,0-1.325-13.3l7.227-.232A112.929,112.929,0,0,1,153.969,374.728Z" transform="translate(-142.407 -309.133)" fill="#ffc5b3"/>
                <path id="Path_19292" data-name="Path 19292" d="M153.275,390.367s2.2,2.249,3.528,3.81,1.579,3.224.6,4.127c-1.248,1.151-3,1.215-6.423-1.468a13.893,13.893,0,0,1-4.253-5.164l.2-3.749s2.047,5.248,5.1,4.975C154.293,392.7,153.275,390.367,153.275,390.367Z" transform="translate(-142.248 -303.704)" fill="#32c1d7"/>
                <path id="Path_19293" data-name="Path 19293" d="M157.888,329.8s4.754,5.253,5.025,10.556c.162,3.175-.176,10.042,1.539,15.151,1.545,4.6,3.206,20.053,3.206,20.053a15.755,15.755,0,0,1-13.051,6.317c-8.974-.066-11.562-5-11.562-5s1.106-11.936,2.154-15.761c.989-3.61,2.658-6.49,2.325-9.9-.763-7.767-1.748-16.091-1.748-16.091a42.705,42.705,0,0,1,4.956-3.519A51.88,51.88,0,0,1,157.888,329.8Z" transform="translate(-143.045 -316.283)" fill="#32c1d7"/>
                <g id="Group_10945" data-name="Group 10945" transform="translate(6.649)">
                  <path id="Path_19294" data-name="Path 19294" d="M155.543,330.9l.69,4.864s-1.227,2.693-4.5.252a11.1,11.1,0,0,1-3.224-3.247,17.888,17.888,0,0,0,2.027-5.459C152,326.824,155.543,330.9,155.543,330.9Z" transform="translate(-148.511 -316.831)" fill="#ffa08d"/>
                  <path id="Path_19295" data-name="Path 19295" d="M151.985,319.718A5.838,5.838,0,0,1,161,323.084c1.789,5.578-3.407,12.33-6.036,11.08-1.472-.7-4.54-3.121-5.338-6.054C148.729,324.81,150.276,320.943,151.985,319.718Z" transform="translate(-148.326 -318.688)" fill="#ffc5b3"/>
                </g>
              </g>
              <path id="Path_19296" data-name="Path 19296" d="M146.727,347.56s3.293,2.575,7.108,1.816a66.135,66.135,0,0,0,8.739-2.641l.32,2.1s-7.132,2.818-10.057,2.818-6.109-2.282-6.109-2.282Z" transform="translate(-139.821 -308.03)" fill="#0ea1c4"/>
              <path id="Path_19297" data-name="Path 19297" d="M154.323,317.177a3.386,3.386,0,0,0-3.9-2.165c-2.88.645-3.756,3.778-3.571,5.436s.414,3.362-.369,4.468a1.431,1.431,0,0,1-2.011.231s.859,3.638,4.59.737S154.323,317.177,154.323,317.177Z" transform="translate(-140.309 -314.916)" fill="#1e1e1e"/>
              <path id="Path_19298" data-name="Path 19298" d="M155.165,317.538a2.605,2.605,0,0,0-3.312-.828c-2.208.921-1.424,3.408-1.424,3.408Z" transform="translate(-139.05 -314.586)" fill="#32c1d7"/>
              <path id="Path_19299" data-name="Path 19299" d="M162.495,321.922c-1.5-2.687-2.236-6.426-8.324-4.4-7.961.23-5.734,10.913-4,13.587.866-1.984,2.929-2.475,4.243-3.187a5.065,5.065,0,0,0,2.9.968,2.322,2.322,0,0,0,1.889-1.332,2.043,2.043,0,0,1,.411,1.332c2.277-.584,3.163-1,3.674-2.011A4.186,4.186,0,0,0,162.495,321.922Z" transform="translate(-139.437 -314.477)" fill="#1e1e1e"/>
              <path id="Path_19300" data-name="Path 19300" d="M169.388,346.183a17.849,17.849,0,0,0,.794,2.756c.425.955,1.223.9,1.22-.921,0-.956-2.014-2.1-2.014-2.1Z" transform="translate(-134.917 -308.206)" fill="#ffc5b3"/>
              <path id="Path_19301" data-name="Path 19301" d="M153,327.614s-.387-3.007-1.851-1.576.38,2.793.38,2.793Z" transform="translate(-138.988 -312.593)" fill="#ffc5b3"/>
              <path id="Path_19302" data-name="Path 19302" d="M150.972,325.707s1.152-3.41,6.018-4.822c3.588-1.041,4.944-.978,5.488.817a13.193,13.193,0,0,0-5.754.826A36.866,36.866,0,0,0,150.972,325.707Z" transform="translate(-138.903 -313.772)" fill="#32c1d7"/>
            </g>
            <g id="Group_10948" data-name="Group 10948" transform="translate(97.761 65.057)">
              <path id="Path_19303" data-name="Path 19303" d="M232.544,380.563s-5.6-4.519-7.389-6.9c-2.743-3.657-2.938-8.294-3.522-9.155s.187-2.681.315-4.461c.15-2.084,3-2.413,4.116-.686,1.967,3.054-1.25,3.373-1.173,5.683a8.418,8.418,0,0,0,2.522,5.047c1.606,1.754,7.612,5.827,7.612,5.827Z" transform="translate(-221.417 -358.247)" fill="#ffa08d"/>
              <path id="Path_19304" data-name="Path 19304" d="M235.586,382.411s-5.3-2.455-6.34-3.138-2.218-5.071-.348-6.842c.314-.3,1.668-1.893,1.668-1.893l6.227,2.832Z" transform="translate(-220.012 -355.588)" fill="#ea4e00"/>
              <path id="Path_19305" data-name="Path 19305" d="M236.309,377.317c-.342.116-4.692,1.253-6.448,4.559s1.662,7.119,1.662,7.119l5.208-3.552Z" transform="translate(-219.699 -354.12)" fill="#ea4e00"/>
              <path id="Path_19306" data-name="Path 19306" d="M237.109,383.641l.536-8.363s3.25,1.174,4.277,3.794,0,7.3,0,7.3Z" transform="translate(-218.021 -354.562)" fill="#ff5c03"/>
              <path id="Path_19307" data-name="Path 19307" d="M236.926,364.264c-3.085.15-6.72,1.083-7.895,5.987-1.776,7.415,3.923,9.01,3.923,9.01v5.926h6.724l-.114-4.558Z" transform="translate(-219.844 -356.945)" fill="#ffc5b3"/>
              <path id="Path_19308" data-name="Path 19308" d="M232.2,376.593a3.634,3.634,0,0,1,2.474,1.368c.684,1.169.855,4.558.855,4.558l-3.334-.74Z" transform="translate(-219.086 -354.277)" fill="#ffa08d"/>
              <path id="Path_19309" data-name="Path 19309" d="M237.158,442.091c-.64,1.522-2.114,1.381-5.1.308a25.712,25.712,0,0,1-6.707-3.419c-1.881-1.392-1.9-1.576-2.148-2.518-.348-1.317,1.517-1.845,4.773-1.063,4.541,1.091,8.644,4.1,9.1,3.906C237.273,440.583,237.541,441.176,237.158,442.091Z" transform="translate(-221.039 -341.629)" fill="#ff5c03"/>
              <path id="Path_19310" data-name="Path 19310" d="M246.306,436.609c-.64,1.523-2.115,1.381-5.1.309A25.713,25.713,0,0,1,234.5,433.5c-1.881-1.392-1.9-1.577-2.148-2.518-.348-1.317,1.517-1.845,4.773-1.063,4.541,1.091,8.643,4.1,9.1,3.906C246.421,435.1,246.689,435.7,246.306,436.609Z" transform="translate(-219.06 -342.815)" fill="#ff5c03"/>
              <path id="Path_19311" data-name="Path 19311" d="M243.645,394.2a59.135,59.135,0,0,1,2.967,13.309c.207,2.174-.421,6.52,0,11.52C247.577,430.492,248,440.2,248,440.2s-.943,2.978-2.645,3.647c-3.339,1.311-6.1-2.108-6.1-2.108l-.974-28.48-.69.4-.663,32.514a5.587,5.587,0,0,1-2.845,3.773c-2.033,1.025-4.45-.588-6-1.882-1.849-10.41-.242-17.991-.45-25.867-.075-2.85-.128-6.083-.172-6.784-.393-6.424-.218-15.256-.092-18.511C231.308,397.539,243.645,394.2,243.645,394.2Z" transform="translate(-220.169 -350.466)" fill="#1e1e1e"/>
              <path id="Path_19312" data-name="Path 19312" d="M239.656,380.925c-3.078-1.368-6.971-1.963-8.168-7.706a21.408,21.408,0,0,1-3.224-6.359,3.943,3.943,0,0,0,1.833-.181c-.283-1.76-.566-2.119.47-3.778,1.052.942,3.768.232,6.15.646,3.216.557,6.1,2.377,6.1,5.711C244.872,374.272,240.91,377.169,239.656,380.925Z" transform="translate(-219.936 -357.24)" fill="#1e1e1e"/>
              <path id="Path_19313" data-name="Path 19313" d="M230.081,371.287s.907-1.658,1.791,0a3.352,3.352,0,0,1-.148,3.225Z" transform="translate(-219.543 -355.585)" fill="#ffc5b3"/>
            </g>
            <g id="Group_10949" data-name="Group 10949" transform="translate(22.023)">
              <path id="Path_19314" data-name="Path 19314" d="M237.079,346.3c-.074.056-.154.091-.232.14a.3.3,0,0,1-.1.113c-2.118,1.339-6.817,2.261-11.382.21l16.307,31.158-12.7,9.6a78.9,78.9,0,0,0-4.828-13.371,1.683,1.683,0,0,0-.172-.281c-.091-.189-.173-.38-.27-.566-3.568-6.816-10-9.663-14.371-6.359s-5.02,11.506-1.452,18.322c.1.185.2.354.3.533a1.673,1.673,0,0,0,.14.314,69.031,69.031,0,0,0,7.936,11.02l-12.875,9.734-16.237-31.022c-.485,5.739-3.166,10.341-5.065,12.035a.261.261,0,0,1-.133.064c-.068.062-.13.134-.2.189-2.7,2.04-7.566-1.426-10.872-7.743s-3.8-13.09-1.1-15.131a2.658,2.658,0,0,1,.231-.139.293.293,0,0,1,.1-.113c2.092-1.325,6.7-2.236,11.219-.277L165.09,333.711l12.736-9.628a78.69,78.69,0,0,0,4.754,13.09,1.649,1.649,0,0,0,.172.282c.091.189.174.379.271.564,3.567,6.817,10,9.664,14.371,6.362s5.019-11.507,1.452-18.323c-.1-.185-.2-.354-.3-.532a1.812,1.812,0,0,0-.14-.315,68.958,68.958,0,0,0-7.761-10.818l12.737-9.629,16.307,31.157c.438-5.834,3.164-10.525,5.086-12.24a.255.255,0,0,1,.133-.064c.068-.062.13-.133.2-.189,2.7-2.04,7.566,1.427,10.872,7.742S239.778,344.263,237.079,346.3Z" transform="translate(-157.871 -304.765)" fill="#c62a87"/>
              <path id="Path_19315" data-name="Path 19315" d="M190.632,308.815l7.219-4.05v8.205l-5.964,2.348Z" transform="translate(-152.343 -304.765)" fill="#c62a87"/>
              <path id="Path_19316" data-name="Path 19316" d="M163.279,358.342l7.219-4.05,2.278,3.687-7.659,3.609Z" transform="translate(-158.262 -294.046)" fill="#c62a87"/>
              <path id="Path_19317" data-name="Path 19317" d="M210.727,380.7l-7.219,4.05-12.875,9.733,7.219-4.05Z" transform="translate(-152.343 -288.33)" fill="#ad1878"/>
              <path id="Path_19318" data-name="Path 19318" d="M208.5,324.21l7.693-4.339,2.661,3.387-9.9,6.823Z" transform="translate(-148.477 -301.496)" fill="#c62a87"/>
              <path id="Path_19319" data-name="Path 19319" d="M218.5,343.593l7.323-4.163-1.078-2.264-8.716,1.893Z" transform="translate(-146.846 -297.753)" fill="#c62a87"/>
              <path id="Path_19320" data-name="Path 19320" d="M180.076,374.1l-7.327,4.106-1.952-3.977,8.1-3.371Z" transform="translate(-156.636 -290.461)" fill="#c62a87"/>
              <path id="Path_19321" data-name="Path 19321" d="M169.994,324.7l7.219-4.05.69,8.138-9.977,4.813Z" transform="translate(-157.257 -301.328)" fill="#c62a87"/>
              <path id="Path_19322" data-name="Path 19322" d="M211.669,378.559l7.219-4.05,12.7-9.6-7.219,4.05Z" transform="translate(-147.79 -291.749)" fill="#ad1878"/>
              <path id="Path_19323" data-name="Path 19323" d="M231.144,349.632c-.073.056-.154.091-.231.14a.308.308,0,0,1-.1.113c-2.119,1.339-6.817,2.263-11.382.21l16.306,31.158-12.7,9.6a78.948,78.948,0,0,0-4.828-13.37,1.651,1.651,0,0,0-.171-.282c-.091-.189-.174-.378-.271-.564-3.568-6.817-10-9.665-14.371-6.361s-5.02,11.506-1.452,18.323c.1.184.2.353.3.532a1.841,1.841,0,0,0,.14.314,68.967,68.967,0,0,0,7.937,11.02L197.444,410.2l-16.236-31.022c-.487,5.739-3.168,10.341-5.066,12.035a.255.255,0,0,1-.133.064c-.068.062-.13.134-.2.189-2.7,2.04-7.567-1.426-10.874-7.743s-3.8-13.09-1.1-15.131c.074-.055.156-.091.232-.139a.3.3,0,0,1,.1-.113c2.093-1.325,6.706-2.236,11.22-.277L159.155,337.04l12.737-9.628a78.648,78.648,0,0,0,4.753,13.091,1.668,1.668,0,0,0,.173.282c.09.187.173.378.27.564,3.568,6.816,10,9.663,14.371,6.361s5.02-11.507,1.452-18.323c-.1-.184-.2-.354-.3-.532a1.813,1.813,0,0,0-.14-.315,68.94,68.94,0,0,0-7.76-10.818l12.736-9.629,16.307,31.158c.438-5.834,3.164-10.525,5.087-12.238a.242.242,0,0,1,.133-.064c.068-.062.129-.134.2-.189,2.7-2.041,7.566,1.426,10.872,7.741S233.843,347.592,231.144,349.632Z" transform="translate(-159.155 -304.045)" fill="#dd4599"/>
            </g>
            <g id="Group_10951" data-name="Group 10951" transform="translate(83.979 67.189)">
              <path id="Path_19324" data-name="Path 19324" d="M234.031,385.624s-5.38-4.559-7.82-5.256c-1.226-2.3-2.974-4.98-4.644-7.7s-3.511-4.773-3.894-7.284,1.14-4.591.164-4.492-1.791,1.6-1.867,2.78-.935-1.367-3.621-2.917-2.248-.74-2.214,2.754a4.734,4.734,0,0,0,2.986,4.309c1.771.8,2.8,3.957,3.593,6.248a82.623,82.623,0,0,0,4.917,10.139c1.574,2.732,9.256,6.153,9.256,6.153Z" transform="translate(-210.088 -360)" fill="#ffc5b3"/>
              <g id="Group_10950" data-name="Group 10950" transform="translate(12.623 19.388)">
                <path id="Path_19325" data-name="Path 19325" d="M244.666,406.54c-2.415,1.917-7.009,3.078-9.853,3.248s-1.943-2.906-1.772-5.43,3.248-.21,5.3-.04,3.59-.17,3.565-1.709-1.685.17-5.575,0-3.356-4.676-4.259-6.44c-1.254-2.45-.57-3.305.968-2.28s2.457,2.08,2.439.057-1.755-1.76-3.76-3.647a50.571,50.571,0,0,0-6.914-5.945c-1.724-1.111-3.226-3.889-4.043-5.632a6.1,6.1,0,0,1,2.591-2.784s3.41,1.234,7.05,2.991c3.542,1.709,4.266,1.753,4.266,1.753s5.813,2.036,6.644-1.212c1.4-.144,4.07-.075,4.6,3.191.527,3.225-.674,12.814,1.1,21.613A19.111,19.111,0,0,1,244.666,406.54Z" transform="translate(-220.401 -375.938)" fill="#ff5c03"/>
                <path id="Path_19326" data-name="Path 19326" d="M239.227,412.113c-4.259,1.8-8.621,1-10.543-1.051-.872-9.231,1.574-20.468.545-21.778-2.095-2.672-7.783-4.524-8.319-7.119a5.013,5.013,0,0,1-.084-3.939c.817,1.743,2.32,4.521,4.043,5.632a50.569,50.569,0,0,1,6.914,5.945c2,1.887,3.743,1.624,3.76,3.647s-.9.968-2.439-.057-2.222-.17-.968,2.28c.9,1.764.37,6.268,4.259,6.44s5.552-1.539,5.575,0-1.514,1.88-3.565,1.709-5.128-2.484-5.3.04-1.072,5.6,1.772,5.43,7.438-1.331,9.853-3.248a19.109,19.109,0,0,0,2.348-2.265c.023.116.041.234.066.349C247.144,407.411,245.549,409.447,239.227,412.113Z" transform="translate(-220.465 -375.443)" fill="#ea4e00"/>
              </g>
            </g>
            <path id="Path_19327" data-name="Path 19327" d="M176.053,344.384c-.878-1.2-5.682,1.306-6.254,1.168s1.431-1.313,1.066-1.859c-.53-.794-1.416-.114-3.138,1.572-.623.609-.839,1.566-2.576,1.826-2.231.335-5.922.3-8.4.55-1.6-2.591-4.181-8.644-5.9-10.484-1.9-2.028-4.537-3.769-5.377-2.933-3.412,3.4,2.784,12.316,6.13,16.169,1.266,1.46,2.348,2.592,3.676,3.029a5.468,5.468,0,0,0,2.338.293c2.927-.882,6.765-2.551,7.919-2.985,3.078-1.157,5.883-.691,6.915-1.191C174.868,348.364,177.573,346.469,176.053,344.384Z" transform="translate(-140.309 -298.436)" fill="#ffc5b3"/>
          </g>
          <path id="Path_19375" data-name="Path 19375" d="M92.636,344.852a15.866,15.866,0,0,1-1.621-.082.608.608,0,0,1,.124-1.21,14.939,14.939,0,0,0,3.5-.06.6.6,0,0,1,.685.519.609.609,0,0,1-.521.685A16.324,16.324,0,0,1,92.636,344.852Zm-5.111-.877a.6.6,0,0,1-.2-.035,15.769,15.769,0,0,1-3.39-1.686.609.609,0,0,1,.669-1.017,14.558,14.558,0,0,0,3.129,1.558.608.608,0,0,1-.2,1.18Zm10.712-.184a.609.609,0,0,1-.224-1.174,14.745,14.745,0,0,0,3.074-1.663.608.608,0,1,1,.7.993,15.943,15.943,0,0,1-3.328,1.8A.6.6,0,0,1,98.237,343.791Zm-16.755-3.783a.6.6,0,0,1-.444-.192,15.832,15.832,0,0,1-2.237-3.053.607.607,0,1,1,1.058-.6,14.768,14.768,0,0,0,2.067,2.818.608.608,0,0,1-.444,1.023Zm22.657-.389a.608.608,0,0,1-.459-1.007,14.749,14.749,0,0,0,1.969-2.889.608.608,0,1,1,1.079.561,15.879,15.879,0,0,1-2.131,3.126A.6.6,0,0,1,104.139,339.619Zm-26.2-5.906a.61.61,0,0,1-.585-.444,15.9,15.9,0,0,1-.577-3.743.607.607,0,0,1,.586-.628.616.616,0,0,1,.629.588,14.688,14.688,0,0,0,.533,3.455.607.607,0,0,1-.422.749A.588.588,0,0,1,77.935,333.713Zm29.532-.51a.644.644,0,0,1-.144-.017.609.609,0,0,1-.448-.735,14.682,14.682,0,0,0,.414-3.47c0-.339-.011-.678-.035-1.011a.609.609,0,0,1,.566-.648.6.6,0,0,1,.65.566c.024.362.036.725.036,1.094a15.941,15.941,0,0,1-.448,3.758A.611.611,0,0,1,107.467,333.2Zm-29.779-6.715a.547.547,0,0,1-.124-.013.606.606,0,0,1-.472-.716,15.724,15.724,0,0,1,1.205-3.59.607.607,0,1,1,1.1.522A14.563,14.563,0,0,0,78.283,326,.609.609,0,0,1,77.688,326.489Zm29.495-1.527a.607.607,0,0,1-.579-.423,14.656,14.656,0,0,0-1.45-3.18.608.608,0,1,1,1.038-.634,15.843,15.843,0,0,1,1.572,3.445.606.606,0,0,1-.58.792Zm-26.39-5a.607.607,0,0,1-.471-.991,15.859,15.859,0,0,1,2.72-2.631.608.608,0,1,1,.735.968,14.7,14.7,0,0,0-2.512,2.43A.609.609,0,0,1,80.792,319.96Zm22.629-1.169a.611.611,0,0,1-.431-.178,14.7,14.7,0,0,0-2.748-2.16.607.607,0,1,1,.631-1.038,15.842,15.842,0,0,1,2.977,2.338.607.607,0,0,1-.429,1.038Zm-16.874-3.2a.608.608,0,0,1-.243-1.165,15.759,15.759,0,0,1,3.626-1.085.609.609,0,1,1,.207,1.2,14.589,14.589,0,0,0-3.348,1A.594.594,0,0,1,86.547,315.59Zm10.7-.555a.638.638,0,0,1-.182-.028,14.673,14.673,0,0,0-3.435-.646.608.608,0,0,1,.083-1.214,15.878,15.878,0,0,1,3.719.7.607.607,0,0,1-.184,1.187Z" transform="translate(-21.113 -255.499)" fill="#fff"/>
        </g>
        <g id="Group_10968" data-name="Group 10968" transform="translate(238.331 74.332)">
          <path id="Path_19230" data-name="Path 19230" d="M335.657,321.745a8.3,8.3,0,1,1-8.3-8.3A8.3,8.3,0,0,1,335.657,321.745Z" transform="translate(-231.381 -277.108)" fill="#fff"/>
          <circle id="Ellipse_221" data-name="Ellipse 221" cx="30.899" cy="30.899" r="30.899" transform="matrix(0.926, -0.377, 0.377, 0.926, 8.927, 41.079)" fill="#fff"/>
          <path id="Path_19231" data-name="Path 19231" d="M364.768,420.517c-2.7-2.083-9.59-3.49-16.316-3.585l25.927-14.969-.094-.054-.02.012.055.032-.012.007-20.649-11.922,9.806-5.661L340.487,371.11a54.625,54.625,0,0,0,17.877-5.187.713.713,0,0,0,.173-.12c.124-.066.254-.125.375-.195,4.4-2.542,4.186-6.788-.484-9.483S346.4,353.3,342,355.845c-.118.068-.22.142-.333.214a1.029,1.029,0,0,0-.213.1c-3.157,1.983-7.819,6.283-8.984,10.321L309.447,353.19l-26.592,15.354a42.762,42.762,0,0,1,16.766,3.751.449.449,0,0,1,.146.109c.108.055.224.1.327.164,3.812,2.2,2.531,6.509-2.861,9.622a20.492,20.492,0,0,1-2.252,1.113,16.134,16.134,0,0,0-5.458-6.173.657.657,0,0,0-.181-.08c-.095-.062-.178-.128-.28-.186-3.3-1.907-9.414-1.545-14.423.69a9,9,0,0,1-1.041-3.665l-26.579,15.345-.013-.007-.027.015.04.022,21.956,12.678-1.507.87a54.968,54.968,0,0,0-15.182,4.832.738.738,0,0,0-.173.12c-.124.066-.254.125-.375.195-4.4,2.541-4.186,6.788.484,9.483s12.024,2.822,16.427.28c.118-.068.221-.144.333-.214a1.032,1.032,0,0,0,.213-.1,27.237,27.237,0,0,0,4.27-3.41L313.5,437.11l23.543-13.652c.163,3.884,1.879,6.147,5.1,8.116,5.838,3.568,13.724,2.587,18.98-.448S368.163,423.141,364.768,420.517Z" transform="translate(-246.979 -268.505)" fill="#ff9801"/>
          <g id="Group_10943" data-name="Group 10943" transform="translate(2.289 36.196)">
            <g id="Group_10927" data-name="Group 10927" transform="translate(15.314 57.209)">
              <g id="Group_10926" data-name="Group 10926" transform="translate(0 10.753)">
                <path id="Path_19233" data-name="Path 19233" d="M347.34,408.766l19.6-11.316-.088-.051-.018.011.052.03-.012.006-20.761-11.987c-1.115,3.619-5.265,7.44-8.088,9.213a.883.883,0,0,1-.193.092c-.1.063-.193.131-.3.193-3.985,2.3-10.641,2.187-14.868-.253s-4.423-6.284-.439-8.584c.109-.063.228-.117.339-.176a.732.732,0,0,1,.157-.109,49.545,49.545,0,0,1,15.957-4.67L317.954,369.2l-23.943,13.823c-.223-3.563-3.46-7.078-5.869-8.634a.654.654,0,0,0-.168-.075c-.088-.057-.165-.118-.259-.173-3.451-1.992-10.206-1.322-15.086,1.495s-6.041,6.718-2.59,8.71c.094.055.2.1.3.148a.425.425,0,0,0,.133.1,38.693,38.693,0,0,0,14.956,3.388l-23.973,13.84,20.9,12.068c1.057-3.654,5.274-7.543,8.129-9.336a.937.937,0,0,1,.193-.092c.1-.063.195-.131.3-.193,3.985-2.3,10.641-2.187,14.868.253s4.424,6.284.439,8.584c-.109.063-.227.117-.339.176a.754.754,0,0,1-.156.109,49.5,49.5,0,0,1-16.171,4.694l20.791,12,24.077-13.9V405.434Z" transform="translate(-261.45 -369.199)" fill="#0086ac"/>
                <path id="Path_19234" data-name="Path 19234" d="M327.373,418.5a.575.575,0,0,0,.169.075c.086.057.164.118.258.173,3.452,1.993,10.206,1.323,15.087-1.495s6.04-6.717,2.589-8.71c-.094-.054-.2-.1-.3-.148a.425.425,0,0,0-.133-.1,38.691,38.691,0,0,0-15.176-3.4l4.474-2.584-12.854-3.332V409.74C321.644,413.347,324.935,416.928,327.373,418.5Z" transform="translate(-248.456 -362.752)" fill="#0ea1c4"/>
              </g>
              <path id="Path_19235" data-name="Path 19235" d="M344.611,399.973v11.556l-5.964,3.444-4.281-9.679Z" transform="translate(-245.669 -351.786)" fill="#0ea1c4"/>
              <path id="Path_19236" data-name="Path 19236" d="M327.684,370.2v10.753l-13.848-2.716-1.582-8.037Z" transform="translate(-250.455 -358.23)" fill="#0086ac"/>
              <path id="Path_19237" data-name="Path 19237" d="M350.492,383.55V394.3l-11.479,1s-2.513-8.516-1.955-8.656S350.492,383.55,350.492,383.55Z" transform="translate(-245.104 -355.34)" fill="#0086ac"/>
              <path id="Path_19238" data-name="Path 19238" d="M266.89,370.227v11.1l6.879,1.086s5.026-9.307,5.212-9.585S266.89,370.227,266.89,370.227Z" transform="translate(-260.273 -358.223)" fill="#ffa631"/>
              <path id="Path_19239" data-name="Path 19239" d="M290.482,395.713a.942.942,0,0,1,.193-.093c.1-.063.195-.131.3-.193,3.985-2.3,10.641-2.187,14.868.253s4.424,6.284.439,8.584c-.109.063-.227.117-.339.176a.753.753,0,0,1-.156.109,49.5,49.5,0,0,1-16.171,4.694l20.791,12,24.077-13.9c.152,3.607,3.442,7.188,5.881,8.762a.611.611,0,0,0,.169.075c.086.057.164.118.258.173,3.452,1.992,10.206,1.323,15.087-1.495s6.04-6.717,2.589-8.71c-.094-.055-.2-.1-.3-.148a.423.423,0,0,0-.133-.1,38.717,38.717,0,0,0-15.176-3.4l24.077-13.9-.088-.05-.018.011.052.03-.012.006-20.761-11.987c-1.115,3.619-5.265,7.44-8.088,9.213a.944.944,0,0,1-.193.092c-.1.063-.193.131-.3.193-3.985,2.3-10.641,2.187-14.868-.253s-4.423-6.284-.439-8.584c.109-.063.228-.117.339-.176a.731.731,0,0,1,.157-.109,49.548,49.548,0,0,1,15.957-4.67l-20.725-11.966-23.943,13.823c-.223-3.563-3.46-7.078-5.869-8.634a.616.616,0,0,0-.168-.075c-.088-.057-.165-.118-.259-.173-3.451-1.993-10.206-1.323-15.086,1.495s-6.041,6.717-2.59,8.71c.094.055.2.1.3.148a.423.423,0,0,0,.133.1,38.715,38.715,0,0,0,14.956,3.388l-23.973,13.84,20.9,12.068C283.41,401.4,287.627,397.506,290.482,395.713Z" transform="translate(-261.45 -360.359)" fill="#32c1d7"/>
              <path id="Path_19240" data-name="Path 19240" d="M305.4,412.551l-20.791-12V411.3l20.791,12Z" transform="translate(-256.438 -351.662)" fill="#0ea1c4"/>
              <path id="Path_19241" data-name="Path 19241" d="M282.352,399.245V410l-20.9-12.068V387.177Z" transform="translate(-261.45 -354.555)" fill="#0ea1c4"/>
            </g>
            <g id="Group_10929" data-name="Group 10929" transform="translate(0 25.079)">
              <path id="Path_19242" data-name="Path 19242" d="M250.1,377.965l-.049,10.695,5.084,2.731,4.188-9.493Z" transform="translate(-248.603 -324.418)" fill="#ad1878"/>
              <path id="Path_19243" data-name="Path 19243" d="M338.541,339.809v10.975l-19.652,3.353-3.045-7.911Z" transform="translate(-234.364 -332.676)" fill="#ad1878"/>
              <path id="Path_19244" data-name="Path 19244" d="M248.88,360.761l.012,10.787h10.779l3.444-7.985Z" transform="translate(-248.857 -328.142)" fill="#c62a87"/>
              <path id="Path_19245" data-name="Path 19245" d="M323.933,358.187a49.04,49.04,0,0,0,11.774-4.009.658.658,0,0,0,.156-.108c.113-.06.231-.114.339-.176,3.985-2.3,3.789-6.144-.438-8.584s-10.883-2.555-14.868-.253c-.108.062-.2.129-.3.193a.932.932,0,0,0-.193.091,23.917,23.917,0,0,0-6.956,6.817C316.841,354.345,320.346,356.335,323.933,358.187Z" transform="translate(-234.883 -331.899)" fill="#ad1878"/>
              <g id="Group_10928" data-name="Group 10928" transform="translate(0 10.753)">
                <path id="Path_19246" data-name="Path 19246" d="M333.5,359.006c.871-.084,1.748-.2,2.624-.35q-4.739-2.5-9.253-5.392a9.017,9.017,0,0,0-.628,1.553l-20.839-12.032-24.072,13.9a38.68,38.68,0,0,1,15.176,3.4.421.421,0,0,1,.133.1c.1.05.2.095.3.148,3.452,1.992,2.293,5.892-2.589,8.71s-11.635,3.487-15.086,1.495c-.094-.055-.172-.116-.259-.173a.643.643,0,0,1-.169-.075c-2.438-1.574-5.729-5.155-5.88-8.762l-24.06,13.89-.012-.006-.023.013.035.021,10.454,6.035,17.709-.528V391.7l20.761,11.985.012-.006-.052-.03.02-.01,23.953-13.831a38.692,38.692,0,0,1-14.955-3.388.424.424,0,0,1-.133-.1c-.1-.05-.2-.094-.3-.148-3.451-1.992-2.292-5.891,2.589-8.71s11.635-3.487,15.086-1.495c.095.055.173.116.259.173a.625.625,0,0,1,.169.075c2.41,1.556,5.647,5.071,5.869,8.634L354.3,371.015Z" transform="translate(-248.861 -342.785)" fill="#c62a87"/>
                <path id="Path_19247" data-name="Path 19247" d="M259.093,374.684l10.271,5.93a49.557,49.557,0,0,0-15.957,4.67.693.693,0,0,0-.156.11c-.113.06-.231.113-.339.176-3.985,2.3-3.789,6.144.438,8.584s10.883,2.553,14.868.253c.108-.062.2-.129.3-.193a.878.878,0,0,0,.193-.092c2.823-1.772,6.973-5.594,8.088-9.212V374.156Z" transform="translate(-248.604 -335.996)" fill="#ad1878"/>
              </g>
              <path id="Path_19248" data-name="Path 19248" d="M275.557,345.548V356.3l8.681-2.227,9.307-6.421-5.3-3.1Z" transform="translate(-243.083 -331.65)" fill="#c62a87"/>
              <path id="Path_19249" data-name="Path 19249" d="M268.778,392.163a.882.882,0,0,0,.193-.092c2.823-1.774,6.973-5.594,8.088-9.212l20.761,11.985.012-.006-.052-.03.02-.011,23.953-13.83a38.692,38.692,0,0,1-14.955-3.388.425.425,0,0,1-.133-.1c-.1-.05-.2-.095-.3-.148-3.451-1.993-2.292-5.891,2.589-8.71s11.635-3.488,15.086-1.495c.095.055.173.116.259.173a.623.623,0,0,1,.169.075c2.41,1.556,5.647,5.071,5.869,8.634L354.3,362.175l-20.8-12.009a49.434,49.434,0,0,0,16.182-4.7.623.623,0,0,0,.156-.11c.113-.058.231-.113.339-.175,3.985-2.3,3.789-6.144-.438-8.584s-10.883-2.555-14.868-.253c-.108.061-.2.129-.3.193a.939.939,0,0,0-.193.091c-2.857,1.794-7.078,5.687-8.133,9.343l-20.839-12.032-24.072,13.9a38.7,38.7,0,0,1,15.176,3.4.423.423,0,0,1,.133.1c.1.05.2.094.3.148,3.452,1.992,2.293,5.892-2.589,8.71s-11.635,3.488-15.086,1.495c-.094-.055-.172-.116-.259-.173a.681.681,0,0,1-.169-.075c-2.438-1.575-5.729-5.155-5.88-8.762l-24.06,13.89-.012-.006-.023.013.035.019,20.725,11.966a49.555,49.555,0,0,0-15.957,4.67.7.7,0,0,0-.156.109c-.113.06-.231.113-.339.176-3.985,2.3-3.789,6.144.438,8.584s10.883,2.553,14.868.253C268.584,392.294,268.677,392.228,268.778,392.163Z" transform="translate(-248.861 -333.945)" fill="#dd4599"/>
              <path id="Path_19250" data-name="Path 19250" d="M315.844,370.986V381.74L339.8,367.906V357.152Z" transform="translate(-234.364 -328.922)" fill="#ad1878"/>
              <path id="Path_19251" data-name="Path 19251" d="M313.048,372.6v10.753L289.076,397.2l.019-10.764Z" transform="translate(-240.157 -325.579)" fill="#ad1878"/>
            </g>
            <g id="Group_10942" data-name="Group 10942" transform="translate(19.757)">
              <g id="Group_10930" data-name="Group 10930" transform="translate(15.145 18.229)">
                <path id="Path_19252" data-name="Path 19252" d="M286.638,328.314s-1.59.852-3.869,4.459c-1.147,1.817-4.174,4.54-4.6,5.135a14.77,14.77,0,0,0-.551,5.7,6.437,6.437,0,0,0,3.294-.09c1.2-.5,7.072-9.391,7.072-9.391Z" transform="translate(-277.553 -328.314)" fill="#ffc5b3"/>
              </g>
              <path id="Path_19253" data-name="Path 19253" d="M302.245,356.422a8.565,8.565,0,0,1,1.921-1.9c-4.661-1.117-16.845-2.581-16.845-2.581-.478-.028-2.333-3.276-5.2-6.5-.606,1.873-.826,3.559-1.864,5.248-.8,1.309-2.329,1.752-3.326,2.911.776,1.182,1.553,3.23,2.4,4.361,2.376,3.157,5.724,4.032,9.227,5.1a7.3,7.3,0,0,0,6,2.607c1.892-.045,4.247-1.212,7.156-1.94C300.861,360.955,300.491,358.84,302.245,356.422Z" transform="translate(-262.543 -306.38)" fill="#1e1e1e"/>
              <path id="Path_19254" data-name="Path 19254" d="M290.292,326.061s-1.581-2.25-3.911.689c-2.208,2.786-5.581,7.219-5.581,7.219s3.717,4.249,7.531,4.248C291.519,338.215,290.292,326.061,290.292,326.061Z" transform="translate(-261.706 -310.751)" fill="#ff9801"/>
              <g id="Group_10932" data-name="Group 10932" transform="translate(22.393 2.457)">
                <path id="Path_19255" data-name="Path 19255" d="M284.612,356.769c4.531,3.861,8.536,6.278,18.13,1.966-3.264-9.084.405-17.287,0-22.978-1.473-4.846-6.122-7.477-6.122-7.477l-6.6-2.292s-.782-.327-1.63.9c-3.773,5.479-5.029,9.463-4.452,14.1.5,3.986.679,6.757.3,8.755C283.69,352.661,282.758,354.651,284.612,356.769Z" transform="translate(-283.512 -313.054)" fill="#ffcb37"/>
                <g id="Group_10931" data-name="Group 10931" transform="translate(1.836)">
                  <path id="Path_19256" data-name="Path 19256" d="M288.918,327.6l-.692,4.034s-1.592,3.573,0,4.637c1.392.931,3.137,0,5.319-2.606A34.193,34.193,0,0,0,296,330.225l-1.237-6.87Z" transform="translate(-284.481 -313.615)" fill="#ffa08d"/>
                  <path id="Path_19257" data-name="Path 19257" d="M295.989,317.536a5.818,5.818,0,0,0-9.565.706c-3.269,4.836-.179,12.743,2.683,12.282,1.6-.258,5.214-1.719,6.795-4.3C297.684,323.314,297.283,319.185,295.989,317.536Z" transform="translate(-285.022 -315.348)" fill="#ffc5b3"/>
                </g>
              </g>
              <path id="Path_19258" data-name="Path 19258" d="M285.285,322a12.075,12.075,0,0,0,2.9-2.083c.934,1.979,5.3,3.388,6.755,3.464a30.953,30.953,0,0,0,.808,3.9,7.806,7.806,0,0,0,3.849-7.736c-.3-2.737-1.928-3.76-3.888-4.275-4.52-4.392-9.791-.236-10.833,1.742C283.779,319.1,284.94,320.746,285.285,322Z" transform="translate(-260.923 -313.328)" fill="#1e1e1e"/>
              <path id="Path_19259" data-name="Path 19259" d="M292.729,339.179c-.626-.68-3.449-2.634-5.159-2.131-1.656.487-2.446,2.314-2.541,3.925-.195,3.313,3.146,9.138,7.165,7.429C295.809,346.867,294.875,341.514,292.729,339.179Z" transform="translate(-260.792 -308.213)" fill="#ff9801"/>
              <path id="Path_19260" data-name="Path 19260" d="M285.767,346.571l3.062-8.655,1.639.507,3.089,12.279-1.886.393-2.009-9.343-2.641,6.07Z" transform="translate(-260.631 -308.007)" fill="#fff"/>
              <path id="Path_19261" data-name="Path 19261" d="M287.041,343.993l4.769,2.824-.7-2.37-3.652-1.892Z" transform="translate(-260.355 -307.003)" fill="#fff"/>
              <path id="Path_19262" data-name="Path 19262" d="M281.278,351.4a8.359,8.359,0,0,0,1.682-4.658s-3.962-4.332-6.311-4.6a3.6,3.6,0,0,0-4.163,2.911c-1.091,3.747,1.213,8.851,3.181,12.083,1.8,2.961,4.832,9.662,4.832,9.662l4.13-1.94S283.279,353.584,281.278,351.4Z" transform="translate(-263.566 -307.1)" fill="#ffc5b3"/>
              <path id="Path_19263" data-name="Path 19263" d="M278.457,361.4s.76,2.59,1.124,3.439,1.94,6.224,3.88,8.609a2.8,2.8,0,0,0,4.85-.345c.647-1.231-.133-5.251-.686-6.445a39.611,39.611,0,0,0-4.453-6.507Z" transform="translate(-262.213 -303.196)" fill="#ffc5b3"/>
              <path id="Path_19264" data-name="Path 19264" d="M302.669,354.283c1.046-.668,2.6-2.134,4.624-1.811s4.491,2.928,1.859,7.374-9.392,7.68-19.016,9.054c-6.147.878-13.392,3.113-14.552,2.016-1.275-1.207-2.081-6.057.586-6.1s7.921-.712,9.077-.768c3.34-.162,5.232-1.131,8.228-3.071C295.042,359.963,300.493,355.671,302.669,354.283Z" transform="translate(-263.092 -304.867)" fill="#ffc5b3"/>
              <path id="Path_19265" data-name="Path 19265" d="M296.207,322.939a14.851,14.851,0,0,1,1.191,4.029c.315,1.761.227,3.916-1.521,5.132.152,2.091-.23,2.243-1.825,2.552.417,1.477.265,2.354-1.74,2.354a5.175,5.175,0,0,1,.028,6.5c-1.023,1.378-3.189,0-3.189,0s2.05-.877,1.441-2.017-1.331-2.336-1.111-3.273a2.063,2.063,0,0,1,1.87-1.809s-.684-2.368.762-2.873a1.79,1.79,0,0,1,1.617-2c-.173-.912-1.312-2.629,0-5.018A35.2,35.2,0,0,1,296.207,322.939Z" transform="translate(-259.898 -311.248)" fill="#1e1e1e"/>
              <g id="Group_10940" data-name="Group 10940" transform="translate(0 14.479)">
                <g id="Group_10933" data-name="Group 10933" transform="translate(4.069 18.61)">
                  <path id="Path_19266" data-name="Path 19266" d="M280.343,347.567c1.54-.6,3.449-1.477,4.457-1.949l1.759-5.088c-2.7.725-9.388,2.366-14.188,4.609-2.862,1.339-4.889,1.016-3.446,3.653.017.033.036.054.055.085.735.114,1.8.3,3.025.589C274.28,350,278.154,348.421,280.343,347.567Z" transform="translate(-268.448 -340.53)" fill="#32c1d7"/>
                  <path id="Path_19267" data-name="Path 19267" d="M274,350.074c1.887-.224,10.265-4.086,10.265-4.086l.44-1.275c-1.008.472-2.917,1.348-4.457,1.949-2.19.854-6.064,2.429-8.339,1.9-1.225-.287-2.291-.474-3.025-.589C270.319,350.507,272.137,350.3,274,350.074Z" transform="translate(-268.353 -339.625)" fill="#0ea1c4"/>
                </g>
                <g id="Group_10934" data-name="Group 10934" transform="translate(14.38 36.696)">
                  <path id="Path_19268" data-name="Path 19268" d="M282.925,371.051c1.93-.155,2.534-5.068,4.459-8.375a6.862,6.862,0,0,0,.658-6.042,27.934,27.934,0,0,1,2.944-.223c.147-.622.229-1.013.229-1.013h-6s-4.765,4.655-6.105,7.55a30.882,30.882,0,0,0-1.995,6.673C279.031,370.294,281.74,371.146,282.925,371.051Z" transform="translate(-276.883 -355.398)" fill="#32c1d7"/>
                  <path id="Path_19269" data-name="Path 19269" d="M277.381,373.161a12.737,12.737,0,0,0,7.344,1.086c.487-.077,1.535-7.6,3.359-10.057,1.381-1.859,2.486-6.032,2.944-7.959a27.933,27.933,0,0,0-2.944.223,6.862,6.862,0,0,1-.658,6.042c-1.926,3.307-2.529,8.221-4.459,8.375-1.185.095-3.894-.757-5.811-1.429C276.829,371.3,276.8,372.847,277.381,373.161Z" transform="translate(-276.924 -355.218)" fill="#0ea1c4"/>
                </g>
                <g id="Group_10935" data-name="Group 10935" transform="translate(0 31.036)">
                  <path id="Path_19270" data-name="Path 19270" d="M268.148,364.8c2.416,1.179,4.438-1.9,6.375-4.108s6.033-6.033,9.291-6.48c.362-.05.678-.08.957-.094l-2.375-3.374s-7.4,3.287-10.08,4.473a21.563,21.563,0,0,0-6.554,4.9C265.916,361.485,266.428,363.961,268.148,364.8Z" transform="translate(-264.96 -350.745)" fill="#32c1d7"/>
                  <path id="Path_19271" data-name="Path 19271" d="M271.094,366.76c3.31-1.747,3.09-4.074,6.344-6.667,1.229-.98,8.251-5.475,8.251-5.475l-.774-1.1c-.28.013-.595.044-.957.094-3.258.446-7.354,4.27-9.291,6.48s-3.959,5.287-6.375,4.108c-1.72-.839-2.232-3.316-2.385-4.678-.113.118-.23.237-.339.354C263.716,361.87,267.784,368.505,271.094,366.76Z" transform="translate(-265.103 -350.145)" fill="#0ea1c4"/>
                </g>
                <g id="Group_10936" data-name="Group 10936" transform="translate(16.711 12.749)">
                  <path id="Path_19272" data-name="Path 19272" d="M292.751,352.359c1.123-6.064-2.247-12.353-2.584-12.466l2.364-3.477c-.223-.45-.361-.7-.361-.7l-9.025,2.99s-6.784,11.114-3.317,18.165a29.472,29.472,0,0,0,3.433,1.6C286.508,359.715,291.627,358.424,292.751,352.359Z" transform="translate(-278.841 -335.712)" fill="#0ea1c4"/>
                  <path id="Path_19273" data-name="Path 19273" d="M282.969,360.292c9.7,5.841,13.068-4.126,13.068-10.709,0-5.374-2.692-11.294-3.682-13.292l-2.364,3.477c.337.113,3.706,6.4,2.584,12.466s-6.243,7.356-9.491,6.113a29.479,29.479,0,0,1-3.433-1.6A8.427,8.427,0,0,0,282.969,360.292Z" transform="translate(-278.665 -335.587)" fill="#0086ac"/>
                </g>
                <path id="Path_19274" data-name="Path 19274" d="M288.859,328.351c-4.3-1.636-10.885,1.988-9.13,10.1a7.287,7.287,0,0,0,11.629,3.823A8.109,8.109,0,0,0,288.859,328.351Z" transform="translate(-262.001 -324.639)" fill="#32c1d7"/>
                <path id="Path_19275" data-name="Path 19275" d="M282.47,331.618a2.052,2.052,0,0,0-1.53,2.939c.448,1.288,2.259.847,2.761-.242C284.156,333.331,283.81,331.577,282.47,331.618Z" transform="translate(-261.711 -323.849)" fill="#fff"/>
                <g id="Group_10937" data-name="Group 10937" transform="translate(19.988 9.858)">
                  <path id="Path_19276" data-name="Path 19276" d="M282.157,333.335a.753.753,0,0,0-.562,1.079c.164.473.828.31,1.013-.089C282.775,333.964,282.648,333.32,282.157,333.335Z" transform="translate(-281.535 -333.335)" fill="#1e1e1e"/>
                </g>
                <path id="Path_19277" data-name="Path 19277" d="M286.087,332.925c-1.242,0-2.3,1.619-1.359,3.6.629,1.328,2.777.757,3.359-.588A2.164,2.164,0,0,0,286.087,332.925Z" transform="translate(-260.934 -323.566)" fill="#fff"/>
                <g id="Group_10938" data-name="Group 10938" transform="translate(23.927 11.513)">
                  <path id="Path_19278" data-name="Path 19278" d="M285.42,334.7c-.467,0-.865.608-.512,1.353.237.5,1.046.285,1.264-.22A.814.814,0,0,0,285.42,334.7Z" transform="translate(-284.773 -334.696)" fill="#1e1e1e"/>
                </g>
                <path id="Path_19279" data-name="Path 19279" d="M280.783,337.012a11.032,11.032,0,0,0,3.107,1.7,9.369,9.369,0,0,0,4.676.45s-.4,1.927-4.008,1.115C280.712,339.412,280.783,337.012,280.783,337.012Z" transform="translate(-261.709 -322.681)" fill="#1e1e1e"/>
                <g id="Group_10939" data-name="Group 10939" transform="translate(31.378 20.721)">
                  <path id="Path_19280" data-name="Path 19280" d="M294.549,361.666c.941,1.179,3.189.881,4.9-.352-.59-2.576-2.125-5.642-2.5-10.262-.459-5.615-2.162-10.331-5.156-8.311a1.8,1.8,0,0,0-.628.937,14.8,14.8,0,0,1,1.2,3.851C292.779,350.127,293.2,359.981,294.549,361.666Z" transform="translate(-290.842 -342.265)" fill="#32c1d7"/>
                  <path id="Path_19281" data-name="Path 19281" d="M291.844,353.818c.833,4.344,1.787,9.944,2.761,11.449s5.229.343,5.137-2.589a8.542,8.542,0,0,0-.241-1.615c-1.707,1.232-3.955,1.53-4.9.352-1.348-1.685-1.77-11.539-2.191-14.136a14.8,14.8,0,0,0-1.2-3.851C290.555,345.333,291,349.436,291.844,353.818Z" transform="translate(-290.898 -342.014)" fill="#0ea1c4"/>
                </g>
                <path id="Path_19282" data-name="Path 19282" d="M282.677,331.408a4.576,4.576,0,0,1-1.142-2.849,6.15,6.15,0,0,1,.44-1.924s.648,2,1.354,2.426a8.041,8.041,0,0,1,.106-1.92,3.038,3.038,0,0,1,.967-1.657s.287,2.508,1.072,3.013a5.023,5.023,0,0,1,.733-3.266,2.594,2.594,0,0,0,1.72,2.134c1.427.675,3.425,1.881,3.509,3.509C291.567,333.394,282.677,331.408,282.677,331.408Z" transform="translate(-261.547 -325.231)" fill="#32c1d7"/>
              </g>
              <g id="Group_10941" data-name="Group 10941" transform="translate(17.203 29.268)">
                <path id="Path_19283" data-name="Path 19283" d="M297.894,338.387a58.571,58.571,0,0,0-.229,8.166s-7.035.656-8.274.328c-4.064-1.075-7.891,1.912-8.792,2.534-3.863,2.668,1.255,4.85,6.406,3.215a14.091,14.091,0,0,0,2.466-1.386c.545-.285,2.747.085,5.788.591a27.019,27.019,0,0,0,6.568.159c1.34-.09,1.848-1.552,2.118-3.689.508-4.029.528-8.286.1-9.838C303.383,336.09,297.894,338.387,297.894,338.387Z" transform="translate(-279.245 -337.389)" fill="#ffc5b3"/>
              </g>
              <path id="Path_19284" data-name="Path 19284" d="M292.963,344.182c1.53,1.416,3.89,1.5,5.739,1.473a4.119,4.119,0,0,0,3.324-1.679c.387-6.67.972-11.321-3.1-12.9-2.235-.864-5.139,4.453-5.644,7.331A46.556,46.556,0,0,0,292.963,344.182Z" transform="translate(-259.073 -309.507)" fill="#ff9801"/>
              <path id="Path_19285" data-name="Path 19285" d="M279.75,334.96c-.219.313-2.628,1.538-2.816,4.227s1.019,4.676,3.051,7.637,2.59,4.868,3.626,5.9c4.827,4.811,6.941.405,2.863-4.93-1-1.3-2.979-1.319-3.567-2.649-.865-1.96-.212-3.711-.63-4.45C280.245,339.187,279.75,334.96,279.75,334.96Z" transform="translate(-262.547 -308.647)" fill="#ffc5b3"/>
            </g>
          </g>
          <g id="Group_10965" data-name="Group 10965" transform="translate(53.164)">
            <path id="Path_19376" data-name="Path 19376" d="M258.966,347.829a.608.608,0,0,1-.035-1.215,16.261,16.261,0,0,0,3.463-.574.608.608,0,1,1,.327,1.17,17.333,17.333,0,0,1-3.721.618Zm-3.636-.181a.649.649,0,0,1-.1-.007,17.37,17.37,0,0,1-3.642-.995.608.608,0,0,1,.446-1.131,16.229,16.229,0,0,0,3.385.924.608.608,0,0,1-.094,1.209Zm10.6-1.77a.609.609,0,0,1-.286-1.146,16.31,16.31,0,0,0,2.9-1.979.609.609,0,1,1,.789.927,17.55,17.55,0,0,1-3.118,2.126A.6.6,0,0,1,265.935,345.878Zm-17.343-.884a.6.6,0,0,1-.339-.1,17.623,17.623,0,0,1-2.885-2.429.608.608,0,1,1,.878-.841,16.423,16.423,0,0,0,2.686,2.26.608.608,0,0,1-.339,1.113Zm22.852-3.815a.607.607,0,0,1-.484-.976,16.248,16.248,0,0,0,1.809-3.009.608.608,0,0,1,1.1.511,17.487,17.487,0,0,1-1.944,3.234A.61.61,0,0,1,271.444,341.179Zm-27.857-1.417a.61.61,0,0,1-.519-.291,17.48,17.48,0,0,1-1.606-3.413.608.608,0,1,1,1.149-.4,16.329,16.329,0,0,0,1.495,3.177.609.609,0,0,1-.2.836A.6.6,0,0,1,243.587,339.762Zm30.895-5.158a.59.59,0,0,1-.129-.015.607.607,0,0,1-.465-.723,16.431,16.431,0,0,0,.375-3.49.607.607,0,0,1,.01-.107.513.513,0,0,1-.011-.106,16.221,16.221,0,0,0-.421-3.485.609.609,0,0,1,1.186-.275,17.537,17.537,0,0,1,.451,3.745.594.594,0,0,1-.01.114.565.565,0,0,1,.011.113,17.658,17.658,0,0,1-.4,3.749A.608.608,0,0,1,274.482,334.6Zm-33.247-1.69a.609.609,0,0,1-.6-.539,17.864,17.864,0,0,1-.112-2,17.415,17.415,0,0,1,.089-1.772.619.619,0,0,1,.665-.545.607.607,0,0,1,.544.665,16.693,16.693,0,0,0,.023,3.513.607.607,0,0,1-.535.673A.674.674,0,0,1,241.234,332.914Zm.732-7.2a.57.57,0,0,1-.19-.032.606.606,0,0,1-.388-.768,17.36,17.36,0,0,1,1.563-3.435.608.608,0,1,1,1.045.62,16.2,16.2,0,0,0-1.452,3.2A.611.611,0,0,1,241.967,325.712Zm31.261-2a.607.607,0,0,1-.549-.345,16.192,16.192,0,0,0-1.848-2.984.609.609,0,1,1,.96-.749,17.518,17.518,0,0,1,1.985,3.208.608.608,0,0,1-.549.871Zm-27.57-4.236a.607.607,0,0,1-.444-1.022,17.558,17.558,0,0,1,2.854-2.467.608.608,0,0,1,.691,1,16.446,16.446,0,0,0-2.657,2.294A.6.6,0,0,1,245.657,319.479Zm23.119-1.473a.605.605,0,0,1-.388-.141,16.331,16.331,0,0,0-2.927-1.94.609.609,0,0,1,.558-1.081,17.508,17.508,0,0,1,3.144,2.086.608.608,0,0,1-.388,1.077Zm-17.164-2.641a.608.608,0,0,1-.231-1.171,17.415,17.415,0,0,1,3.627-1.041.609.609,0,0,1,.207,1.2,16.014,16.014,0,0,0-3.373.967A.614.614,0,0,1,251.613,315.365Zm10.731-.687a.627.627,0,0,1-.156-.019,16.27,16.27,0,0,0-3.469-.528.609.609,0,0,1,.052-1.216,17.5,17.5,0,0,1,3.728.568.608.608,0,0,1-.156,1.2Z" transform="translate(-240.519 -312.914)" fill="#fff"/>
          </g>
        </g>
      </g>
    </g>
  </g>
</svg>
