<svg xmlns="http://www.w3.org/2000/svg" xmlns:xlink="http://www.w3.org/1999/xlink" width="1012" height="430" viewBox="0 0 1012 430">
  <defs>
    <clipPath id="clip-path">
      <rect id="Group_10966-area" data-name="Group 10966-area" width="1012" height="430" transform="translate(466.385 175.574)" fill="none"/>
    </clipPath>
  </defs>
  <g id="banner-img" transform="translate(-466.385 -175.574)">
    <g id="Mask_Group_35" data-name="Mask Group 35" clip-path="url(#clip-path)">
      <g id="Group_10966-inner" data-name="Group 10966-inner" transform="translate(456.898 -134.949)">
        <circle id="Ellipse_215" data-name="Ellipse 215" cx="80.251" cy="80.251" r="80.251" transform="translate(10.102 538.5) rotate(-76.717)" fill="#fff"/>
        <circle id="Ellipse_216" data-name="Ellipse 216" cx="62.76" cy="62.76" r="62.76" transform="translate(254.785 549.752) rotate(-77.241)" fill="#fff"/>
        <circle id="Ellipse_217" data-name="Ellipse 217" cx="23.985" cy="23.985" r="23.985" transform="translate(273.013 369.466)" fill="#fff"/>
        <circle id="Ellipse_218" data-name="Ellipse 218" cx="29.642" cy="29.642" r="29.642" transform="translate(118.098 382.757) rotate(-76.718)" fill="#fff"/>
        <path id="Path_19230" data-name="Path 19230" d="M359.446,333.64a20.2,20.2,0,1,1-20.2-20.2A20.2,20.2,0,0,1,359.446,333.64Z" transform="translate(605.179 29.856)" fill="#fff"/>
        <circle id="Ellipse_219" data-name="Ellipse 219" cx="69.466" cy="69.466" r="69.466" transform="translate(571.529 459.152)" fill="#fff"/>
        <circle id="Ellipse_220" data-name="Ellipse 220" cx="75.159" cy="75.159" r="75.159" transform="matrix(0.227, -0.974, 0.974, 0.227, 356.896, 452.947)" fill="#fff"/>
        <circle id="Ellipse_221" data-name="Ellipse 221" cx="75.159" cy="75.159" r="75.159" transform="matrix(0.926, -0.377, 0.377, 0.926, 732.698, 354.842)" fill="#fff"/>
        <path id="Path_19231" data-name="Path 19231" d="M533.49,516.956c-6.557-5.066-23.328-8.489-39.687-8.72l63.065-36.412-.228-.13-.047.03.133.077-.03.018-50.227-29,23.851-13.77L474.429,396.78c17.016-1.636,35.133-8.184,43.483-12.617a1.735,1.735,0,0,0,.42-.293c.3-.16.618-.3.911-.473,10.708-6.184,10.181-16.51-1.178-23.067s-29.248-6.865-39.956-.681c-.287.166-.536.346-.811.521a2.5,2.5,0,0,0-.518.246c-7.678,4.823-19.019,15.282-21.854,25.106l-56-32.331-64.683,37.347c16.783.237,33.45,5.341,40.782,9.125a1.092,1.092,0,0,1,.355.266c.263.133.544.254.8.4,9.273,5.352,6.157,15.833-6.959,23.4a49.849,49.849,0,0,1-5.477,2.707,39.245,39.245,0,0,0-13.276-15.016,1.6,1.6,0,0,0-.441-.2c-.231-.151-.432-.311-.681-.453-8.033-4.639-22.9-3.758-35.083,1.678a21.887,21.887,0,0,1-2.533-8.915l-64.651,37.326-.033-.018-.065.035.1.053,53.407,30.837-3.666,2.116c-14.933,2.42-29.645,7.885-36.929,11.753a1.8,1.8,0,0,0-.42.293c-.3.16-.618.3-.911.473-10.708,6.181-10.181,16.51,1.178,23.067s29.248,6.865,39.956.681c.287-.166.539-.349.811-.521a2.509,2.509,0,0,0,.518-.246,66.251,66.251,0,0,0,10.385-8.294l97.385,56.224,57.266-33.207c.4,9.448,4.571,14.951,12.412,19.741,14.2,8.678,33.382,6.294,46.167-1.089S541.748,523.339,533.49,516.956Z" transform="translate(464.005 107.72)" fill="#ff9801"/>
        <ellipse id="Ellipse_222" data-name="Ellipse 222" cx="38.691" cy="21.776" rx="38.691" ry="21.776" transform="translate(339.872 636.451)" fill="#ff9801"/>
        <ellipse id="Ellipse_223" data-name="Ellipse 223" cx="46.632" cy="26.245" rx="46.632" ry="26.245" transform="translate(626.649 680.357)" fill="#ff9801"/>
        <ellipse id="Ellipse_224" data-name="Ellipse 224" cx="38.395" cy="21.609" rx="38.395" ry="21.609" transform="translate(401.685 556.007)" fill="#ff9801"/>
        <path id="Path_19232" data-name="Path 19232" d="M82.03,428.9c-16.413-.34-32.609-5.311-39.779-9.013a1.168,1.168,0,0,1-.355-.263c-.26-.133-.539-.252-.784-.394-9.181-5.3-6.1-15.673,6.885-23.168s30.95-9.276,40.128-3.977c.251.145.456.308.689.459a1.67,1.67,0,0,1,.45.2c6.409,4.139,15.019,13.489,15.611,22.966l63.686-36.77,41.291,23.837,28.6-16.513,55.36,31.961c2.8-9.711,14.016-20.052,21.605-24.819a2.466,2.466,0,0,1,.512-.246c.272-.169.518-.349.8-.515,10.587-6.11,28.272-5.808,39.5.675s11.75,16.691,1.163,22.8c-.287.169-.6.311-.9.467a1.911,1.911,0,0,1-.414.29c-8.258,4.382-26.168,10.856-42.989,12.474l55.254,31.9-87.18,50.333c-1.275,4.169-5.273,8.6-11.723,12.324a54.858,54.858,0,0,1-21.345,6.77l-29.855,17.235-.05.03.136.077-.03.018L177.21,524.322,162.185,533a37.761,37.761,0,0,1-13.552,9.8,49.556,49.556,0,0,1-44.128-2.551c-10.9-6.294-10.584-18.925-.882-25.254l-10.433-6.024c14.534-1.4,29.858-6.418,39.1-10.584L92.2,475.241c-7.22,5.335-15.907,14.182-18.336,22.573l-55.6-32.1Zm99.062,17.886c10.329,5.965,26.1,6.687,36.82,2.021,4.867-5.98,4.506-12.217-1.947-15.945-.249-.142-.527-.26-.787-.393a1.148,1.148,0,0,0-.352-.263c-6.326-3.264-19.691-7.524-34.021-8.708-.293.151-.6.293-.879.453C169.328,430.071,169.849,440.294,181.092,446.785Z" transform="translate(15.987 158.164)" fill="#ff9801"/>
        <g id="Group_10943" data-name="Group 10943" transform="translate(716.553 342.966)">
          <g id="Group_10927" data-name="Group 10927" transform="translate(37.249 139.156)">
            <g id="Group_10926" data-name="Group 10926" transform="translate(0 26.156)">
              <path id="Path_19233" data-name="Path 19233" d="M470.371,465.441l47.682-27.526-.213-.124-.044.027.127.074-.03.015-50.5-29.157c-2.713,8.8-12.806,18.1-19.673,22.41a2.153,2.153,0,0,1-.47.225c-.246.154-.47.32-.734.47-9.693,5.6-25.884,5.32-36.166-.615s-10.758-15.285-1.068-20.881c.266-.154.553-.284.826-.429a1.785,1.785,0,0,1,.382-.266c7.468-3.965,23.57-9.791,38.814-11.359L398.891,369.2l-58.239,33.624c-.541-8.666-8.415-17.217-14.276-21a1.591,1.591,0,0,0-.408-.183c-.213-.139-.4-.287-.63-.42-8.394-4.847-24.825-3.216-36.7,3.636s-14.694,16.342-6.3,21.185c.228.133.482.24.719.361a1.032,1.032,0,0,0,.323.243c6.557,3.382,21.369,7.93,36.379,8.24L261.45,448.549,312.295,477.9c2.571-8.888,12.83-18.348,19.774-22.709a2.276,2.276,0,0,1,.471-.225c.246-.154.473-.32.734-.47,9.693-5.6,25.884-5.32,36.166.615S380.2,470.4,370.507,476c-.266.154-.553.284-.826.429a1.835,1.835,0,0,1-.379.266c-7.557,4.009-23.94,9.93-39.335,11.418l50.573,29.2,58.564-33.814V457.337Z" transform="translate(-261.45 -369.199)" fill="#0086ac"/>
              <path id="Path_19234" data-name="Path 19234" d="M335.8,446.456a1.4,1.4,0,0,0,.411.184c.21.139.4.287.627.42,8.4,4.847,24.825,3.219,36.7-3.636s14.691-16.339,6.3-21.185c-.228-.13-.482-.24-.719-.361a1.029,1.029,0,0,0-.323-.24c-6.637-3.426-21.724-8.048-36.915-8.261l10.883-6.285-31.266-8.1v26.156C321.862,433.916,329.866,442.627,335.8,446.456Z" transform="translate(-143.837 -310.849)" fill="#0ea1c4"/>
            </g>
            <path id="Path_19235" data-name="Path 19235" d="M359.287,399.973v28.108l-14.508,8.376-10.414-23.544Z" transform="translate(-118.62 -282.761)" fill="#0ea1c4"/>
            <path id="Path_19236" data-name="Path 19236" d="M349.787,370.2v26.156L316.1,389.745,312.254,370.2Z" transform="translate(-161.933 -341.09)" fill="#0086ac"/>
            <path id="Path_19237" data-name="Path 19237" d="M369.851,383.55v26.156l-27.923,2.441s-6.113-20.715-4.755-21.055S369.851,383.55,369.851,383.55Z" transform="translate(-113.505 -314.931)" fill="#0086ac"/>
            <path id="Path_19238" data-name="Path 19238" d="M266.89,370.227v27l16.732,2.642s12.226-22.638,12.679-23.316S266.89,370.227,266.89,370.227Z" transform="translate(-250.794 -341.029)" fill="#ffa631"/>
            <path id="Path_19239" data-name="Path 19239" d="M332.069,446.355a2.286,2.286,0,0,1,.471-.225c.246-.154.473-.319.734-.47,9.693-5.6,25.884-5.32,36.166.615s10.761,15.285,1.068,20.881c-.266.154-.553.284-.826.429a1.832,1.832,0,0,1-.379.266c-7.557,4.009-23.94,9.93-39.335,11.418l50.573,29.2,58.564-33.814c.37,8.773,8.373,17.484,14.306,21.313a1.48,1.48,0,0,0,.411.183c.21.139.4.287.627.42,8.4,4.847,24.825,3.219,36.7-3.636s14.691-16.339,6.3-21.185c-.228-.133-.482-.24-.719-.361a1.032,1.032,0,0,0-.323-.243c-6.637-3.423-21.724-8.045-36.915-8.258l58.565-33.814-.213-.121-.044.027.127.074-.03.015-50.5-29.156c-2.713,8.8-12.806,18.1-19.673,22.41a2.29,2.29,0,0,1-.47.225c-.246.154-.47.32-.734.47-9.693,5.6-25.884,5.32-36.166-.615s-10.758-15.285-1.068-20.881c.266-.154.553-.284.826-.429a1.784,1.784,0,0,1,.382-.266c7.468-3.965,23.57-9.791,38.814-11.359l-50.413-29.106-58.239,33.624c-.541-8.666-8.415-17.218-14.276-21a1.5,1.5,0,0,0-.408-.183c-.213-.139-.4-.287-.63-.42-8.394-4.847-24.825-3.219-36.7,3.636s-14.694,16.339-6.3,21.185c.228.133.482.24.719.361a1.032,1.032,0,0,0,.323.243c6.557,3.382,21.369,7.927,36.379,8.24L261.45,439.709l50.845,29.355C314.866,460.176,325.124,450.716,332.069,446.355Z" transform="translate(-261.45 -360.359)" fill="#32c1d7"/>
            <path id="Path_19240" data-name="Path 19240" d="M335.18,429.745l-50.573-29.2V426.7l50.573,29.2Z" transform="translate(-216.089 -281.638)" fill="#0ea1c4"/>
            <path id="Path_19241" data-name="Path 19241" d="M312.293,416.531v26.156l-50.842-29.354V387.177Z" transform="translate(-261.449 -307.826)" fill="#0ea1c4"/>
          </g>
          <g id="Group_10929" data-name="Group 10929" transform="translate(0 61.001)">
            <path id="Path_19242" data-name="Path 19242" d="M250.171,377.965l-.119,26.014,12.367,6.643,10.187-23.091Z" transform="translate(-246.528 -247.718)" fill="#ad1878"/>
            <path id="Path_19243" data-name="Path 19243" d="M371.052,339.809v26.7l-47.8,8.156-7.407-19.243Z" transform="translate(-117.652 -322.459)" fill="#ad1878"/>
            <path id="Path_19244" data-name="Path 19244" d="M248.88,360.761,248.909,387h26.219l8.376-19.422Z" transform="translate(-248.823 -281.418)" fill="#c62a87"/>
            <path id="Path_19245" data-name="Path 19245" d="M338.956,379.366c11.791-2.459,22.828-6.666,28.639-9.752a1.6,1.6,0,0,0,.379-.263c.275-.145.562-.278.826-.429,9.693-5.6,9.217-14.945-1.065-20.881s-26.473-6.214-36.166-.615c-.263.151-.488.314-.734.471a2.272,2.272,0,0,0-.47.222c-5.356,3.364-12.664,9.758-16.919,16.581C321.706,370.022,330.231,374.863,338.956,379.366Z" transform="translate(-122.351 -315.423)" fill="#ad1878"/>
            <g id="Group_10928" data-name="Group 10928" transform="translate(0 26.156)">
              <path id="Path_19246" data-name="Path 19246" d="M454.744,382.241c2.119-.2,4.252-.5,6.382-.852q-11.526-6.08-22.508-13.117a21.936,21.936,0,0,0-1.527,3.778L386.4,342.785l-58.553,33.8c15.194.213,30.281,4.835,36.915,8.261a1.026,1.026,0,0,1,.323.24c.24.121.494.231.719.361,8.4,4.847,5.577,14.333-6.3,21.185s-28.3,8.483-36.7,3.636c-.228-.133-.417-.281-.63-.42a1.562,1.562,0,0,1-.411-.183c-5.93-3.829-13.936-12.54-14.3-21.313l-58.523,33.787-.03-.015-.056.033.086.05,25.428,14.679,43.075-1.284v26.156l50.5,29.154.029-.015-.127-.074.047-.024,58.263-33.642c-15.007-.311-29.819-4.858-36.376-8.24a1.032,1.032,0,0,1-.323-.243c-.237-.121-.494-.228-.719-.361-8.394-4.847-5.575-14.33,6.3-21.185s28.3-8.483,36.7-3.636c.231.133.42.281.63.42a1.518,1.518,0,0,1,.411.183c5.861,3.784,13.735,12.336,14.276,21l58.283-33.651Z" transform="translate(-248.861 -342.785)" fill="#c62a87"/>
              <path id="Path_19247" data-name="Path 19247" d="M272.051,375.44l24.984,14.424c-15.244,1.568-31.343,7.394-38.814,11.359a1.687,1.687,0,0,0-.379.266c-.275.145-.562.275-.826.429-9.693,5.6-9.217,14.945,1.065,20.881s26.473,6.211,36.166.615c.263-.151.488-.314.734-.47a2.145,2.145,0,0,0,.47-.225c6.867-4.311,16.96-13.608,19.673-22.407V374.156Z" transform="translate(-246.537 -281.334)" fill="#ad1878"/>
            </g>
            <path id="Path_19248" data-name="Path 19248" d="M275.557,346.978v26.156l21.115-5.416L319.311,352.1l-12.9-7.55Z" transform="translate(-196.567 -313.174)" fill="#c62a87"/>
            <path id="Path_19249" data-name="Path 19249" d="M297.306,475.555a2.151,2.151,0,0,0,.47-.225c6.867-4.314,16.96-13.608,19.673-22.407l50.5,29.154.029-.015-.127-.074.047-.027,58.263-33.639c-15.007-.311-29.819-4.858-36.376-8.24a1.033,1.033,0,0,1-.323-.243c-.237-.121-.494-.231-.719-.361-8.394-4.847-5.575-14.33,6.3-21.185s28.3-8.483,36.7-3.636c.231.133.42.281.63.42a1.518,1.518,0,0,1,.411.184c5.861,3.784,13.735,12.335,14.276,21l58.283-33.651L454.744,373.4c15.4-1.479,31.8-7.409,39.362-11.421a1.517,1.517,0,0,0,.379-.266c.275-.142.562-.275.826-.426,9.693-5.6,9.217-14.945-1.065-20.881s-26.473-6.214-36.166-.615c-.263.148-.488.314-.734.47a2.28,2.28,0,0,0-.47.222c-6.95,4.364-17.217,13.833-19.783,22.727L386.4,333.945l-58.553,33.8c15.194.213,30.281,4.835,36.915,8.258a1.031,1.031,0,0,1,.323.243c.24.121.494.228.719.361,8.4,4.847,5.577,14.333-6.3,21.185s-28.3,8.483-36.7,3.636c-.228-.133-.417-.281-.63-.42a1.661,1.661,0,0,1-.411-.184c-5.93-3.832-13.936-12.54-14.3-21.313L248.947,413.3l-.03-.015-.056.033.086.047,50.413,29.106c-15.244,1.568-31.343,7.394-38.814,11.359a1.69,1.69,0,0,0-.379.266c-.275.145-.562.275-.826.429-9.693,5.6-9.217,14.945,1.065,20.881s26.473,6.211,36.166.615C296.836,475.875,297.061,475.712,297.306,475.555Z" transform="translate(-248.861 -333.945)" fill="#dd4599"/>
            <path id="Path_19250" data-name="Path 19250" d="M315.844,390.8v26.156l58.283-33.65V357.152Z" transform="translate(-117.652 -288.485)" fill="#ad1878"/>
            <path id="Path_19251" data-name="Path 19251" d="M347.387,372.6v26.157l-58.31,33.665.045-26.182Z" transform="translate(-170.085 -258.223)" fill="#ad1878"/>
          </g>
          <g id="Group_10942" data-name="Group 10942" transform="translate(48.058)">
            <g id="Group_10930" data-name="Group 10930" transform="translate(36.839 44.34)">
              <path id="Path_19252" data-name="Path 19252" d="M299.652,328.314s-3.867,2.071-9.412,10.847c-2.79,4.421-10.152,11.042-11.187,12.489a35.928,35.928,0,0,0-1.34,13.865c3.506.61,6.353.473,8.013-.219,2.917-1.219,17.2-22.842,17.2-22.842Z" transform="translate(-277.553 -328.314)" fill="#ffc5b3"/>
            </g>
            <path id="Path_19253" data-name="Path 19253" d="M338.507,372.163a20.837,20.837,0,0,1,4.672-4.634c-11.338-2.716-40.974-6.279-40.974-6.279-1.163-.068-5.675-7.968-12.652-15.818-1.474,4.557-2.009,8.658-4.533,12.764-1.956,3.184-5.666,4.261-8.09,7.081,1.888,2.876,3.778,7.856,5.85,10.607,5.779,7.678,13.924,9.809,22.443,12.4a17.76,17.76,0,0,0,14.6,6.341c4.6-.11,10.329-2.947,17.407-4.719C335.139,383.188,334.24,378.045,338.507,372.163Z" transform="translate(-241.936 -250.44)" fill="#1e1e1e"/>
            <path id="Path_19254" data-name="Path 19254" d="M303.888,327.24s-3.846-5.474-9.513,1.675C289,335.691,280.8,346.476,280.8,346.476s9.042,10.335,18.318,10.332C306.873,356.805,303.888,327.24,303.888,327.24Z" transform="translate(-234.355 -290.002)" fill="#ff9801"/>
            <g id="Group_10932" data-name="Group 10932" transform="translate(54.47 5.977)">
              <path id="Path_19255" data-name="Path 19255" d="M286.186,400.917c11.022,9.391,20.762,15.271,44.1,4.781-7.939-22.1.985-42.048,0-55.893-3.583-11.788-14.892-18.188-14.892-18.188l-16.064-5.574s-1.9-.8-3.965,2.2c-9.178,13.327-12.232,23.017-10.829,34.293,1.2,9.7,1.651,16.436.74,21.295C283.944,390.925,281.677,395.766,286.186,400.917Z" transform="translate(-283.512 -294.586)" fill="#ffcb37"/>
              <g id="Group_10931" data-name="Group 10931" transform="translate(4.466)">
                <path id="Path_19256" data-name="Path 19256" d="M290.923,333.687,289.24,343.5s-3.873,8.69,0,11.279c3.385,2.263,7.631,0,12.939-6.338a83.173,83.173,0,0,0,5.974-8.374l-3.009-16.712Z" transform="translate(-280.131 -299.664)" fill="#ffa08d"/>
                <path id="Path_19257" data-name="Path 19257" d="M311.7,320.67c-4.048-5.157-15.685-9.5-23.265,1.716-7.95,11.764-.435,31,6.527,29.876,3.9-.627,12.682-4.181,16.528-10.466C315.822,334.725,314.845,324.68,311.7,320.67Z" transform="translate(-285.022 -315.348)" fill="#ffc5b3"/>
              </g>
            </g>
            <path id="Path_19258" data-name="Path 19258" d="M286.528,334.424c2.249-.713,4.474-3.054,7.066-5.066,2.272,4.814,12.9,8.24,16.431,8.427a75.282,75.282,0,0,0,1.965,9.483,18.987,18.987,0,0,0,9.362-18.818c-.74-6.657-4.69-9.146-9.456-10.4-11-10.684-23.816-.574-26.352,4.237C282.865,327.367,285.691,331.37,286.528,334.424Z" transform="translate(-227.272 -313.328)" fill="#1e1e1e"/>
            <path id="Path_19259" data-name="Path 19259" d="M303.771,342.348c-1.524-1.654-8.388-6.406-12.548-5.184-4.027,1.184-5.95,5.628-6.181,9.548-.473,8.06,7.652,22.227,17.428,18.07C311.262,361.048,308.99,348.029,303.771,342.348Z" transform="translate(-226.086 -267.026)" fill="#ff9801"/>
            <path id="Path_19260" data-name="Path 19260" d="M285.767,358.969l7.447-21.052,3.986,1.234,7.513,29.867-4.587.956-4.886-22.727-6.423,14.764Z" transform="translate(-224.625 -265.165)" fill="#fff"/>
            <path id="Path_19261" data-name="Path 19261" d="M287.041,346.053l11.6,6.87-1.692-5.766-8.882-4.6Z" transform="translate(-222.13 -256.077)" fill="#fff"/>
            <path id="Path_19262" data-name="Path 19262" d="M294.273,364.709a20.334,20.334,0,0,0,4.092-11.329s-9.637-10.536-15.35-11.184c-7.717-.873-9.56,5.134-10.125,7.08-2.654,9.113,2.95,21.529,7.737,29.39,4.388,7.2,11.753,23.5,11.753,23.5l10.045-4.719S299.14,370.02,294.273,364.709Z" transform="translate(-251.189 -256.952)" fill="#ffc5b3"/>
            <path id="Path_19263" data-name="Path 19263" d="M278.457,363.187s1.849,6.3,2.734,8.365,4.719,15.14,9.439,20.94,10.226,2.151,11.8-.84-.323-12.773-1.669-15.676c-3.006-6.48-10.832-15.827-10.832-15.827Z" transform="translate(-238.945 -221.616)" fill="#ffc5b3"/>
            <path id="Path_19264" data-name="Path 19264" d="M343.167,356.943c2.545-1.624,6.329-5.19,11.247-4.406s10.924,7.122,4.521,17.937S336.09,389.156,312.679,392.5c-14.951,2.136-32.574,7.572-35.4,4.9-3.1-2.935-5.063-14.732,1.426-14.833s19.268-1.731,22.079-1.867c8.125-.394,12.726-2.752,20.014-7.471C324.615,370.758,337.874,360.319,343.167,356.943Z" transform="translate(-246.898 -236.741)" fill="#ffc5b3"/>
            <path id="Path_19265" data-name="Path 19265" d="M306.313,322.939a36.122,36.122,0,0,1,2.9,9.8c.766,4.284.553,9.525-3.7,12.483.37,5.086-.559,5.456-4.438,6.208,1.015,3.592.645,5.725-4.231,5.725a12.587,12.587,0,0,1,.068,15.812c-2.488,3.352-7.758,0-7.758,0s4.986-2.133,3.506-4.906-3.237-5.681-2.7-7.962c1.036-4.4,4.548-4.4,4.548-4.4s-1.663-5.761,1.852-6.989c0-2.645.923-4.136,3.932-4.876-.42-2.219-3.193-6.394,0-12.205A85.6,85.6,0,0,1,306.313,322.939Z" transform="translate(-217.995 -294.503)" fill="#1e1e1e"/>
            <g id="Group_10940" data-name="Group 10940" transform="translate(0 35.218)">
              <g id="Group_10933" data-name="Group 10933" transform="translate(9.897 45.267)">
                <path id="Path_19266" data-name="Path 19266" d="M297.383,357.647c3.746-1.462,8.388-3.592,10.841-4.74L312.5,340.53c-6.577,1.764-22.836,5.755-34.512,11.211-6.962,3.258-11.892,2.471-8.382,8.885.041.08.089.13.133.207,1.787.278,4.379.734,7.359,1.432C282.633,363.556,292.057,359.724,297.383,357.647Z" transform="translate(-268.448 -340.53)" fill="#32c1d7"/>
                <path id="Path_19267" data-name="Path 19267" d="M281.327,357.753c4.589-.544,24.97-9.939,24.97-9.939l1.071-3.1c-2.453,1.148-7.1,3.278-10.841,4.74-5.326,2.077-14.75,5.909-20.283,4.619-2.98-.7-5.572-1.154-7.359-1.432C272.374,358.806,276.794,358.291,281.327,357.753Z" transform="translate(-267.592 -332.336)" fill="#0ea1c4"/>
              </g>
              <g id="Group_10934" data-name="Group 10934" transform="translate(34.977 89.26)">
                <path id="Path_19268" data-name="Path 19268" d="M291.248,393.472c4.7-.376,6.163-12.327,10.847-20.372s1.6-14.7,1.6-14.7a67.939,67.939,0,0,1,7.16-.542c.358-1.512.556-2.465.556-2.465h-14.6s-11.59,11.323-14.85,18.366A75.123,75.123,0,0,0,277.114,390C281.777,391.632,288.366,393.7,291.248,393.472Z" transform="translate(-276.553 -355.398)" fill="#32c1d7"/>
                <path id="Path_19269" data-name="Path 19269" d="M278.036,397.412a30.981,30.981,0,0,0,17.863,2.642c1.184-.186,3.734-18.487,8.169-24.464,3.358-4.521,6.048-14.673,7.16-19.36a67.958,67.958,0,0,0-7.16.542s3.08,6.648-1.6,14.7-6.151,20-10.847,20.372c-2.882.231-9.471-1.84-14.134-3.477C276.693,392.9,276.625,396.649,278.036,397.412Z" transform="translate(-276.924 -353.766)" fill="#0ea1c4"/>
              </g>
              <g id="Group_10935" data-name="Group 10935" transform="translate(0 75.492)">
                <path id="Path_19270" data-name="Path 19270" d="M271.565,384.935c5.876,2.867,10.794-4.619,15.507-9.992s14.676-14.676,22.6-15.762c.882-.121,1.648-.2,2.329-.228l-5.776-8.208s-18,7.995-24.52,10.88c-6.131,2.719-11.572,7.353-15.942,11.93C266.136,376.869,267.382,382.893,271.565,384.935Z" transform="translate(-263.81 -350.745)" fill="#32c1d7"/>
                <path id="Path_19271" data-name="Path 19271" d="M279.675,385.726c8.051-4.249,7.515-9.909,15.43-16.217,2.988-2.385,20.07-13.318,20.07-13.318l-1.882-2.672c-.681.033-1.447.106-2.329.228-7.924,1.086-17.889,10.385-22.6,15.762s-9.631,12.859-15.507,9.992c-4.184-2.042-5.429-8.066-5.8-11.38-.275.287-.559.577-.825.861C261.73,373.832,271.624,389.972,279.675,385.726Z" transform="translate(-265.103 -345.311)" fill="#0ea1c4"/>
              </g>
              <g id="Group_10936" data-name="Group 10936" transform="translate(40.649 31.012)">
                <path id="Path_19272" data-name="Path 19272" d="M312.675,376.2c2.731-14.75-5.465-30.047-6.285-30.322l5.749-8.456c-.542-1.095-.879-1.713-.879-1.713l-21.952,7.273s-16.5,27.035-8.069,44.184a71.692,71.692,0,0,0,8.35,3.9C297.491,394.1,309.941,390.957,312.675,376.2Z" transform="translate(-278.841 -335.712)" fill="#0ea1c4"/>
                <path id="Path_19273" data-name="Path 19273" d="M287.721,394.672c23.591,14.208,31.787-10.036,31.787-26.05,0-13.072-6.548-27.473-8.956-32.331l-5.749,8.456c.82.275,9.016,15.572,6.285,30.322S295.9,392.962,288,389.938a71.7,71.7,0,0,1-8.35-3.9A20.5,20.5,0,0,0,287.721,394.672Z" transform="translate(-277.252 -334.578)" fill="#0086ac"/>
              </g>
              <path id="Path_19274" data-name="Path 19274" d="M302.354,328.9c-10.462-3.98-26.476,4.835-22.209,24.57,2.521,11.673,18.209,17.892,28.287,9.3C320.5,352.476,316.728,334.367,302.354,328.9Z" transform="translate(-237.023 -319.872)" fill="#32c1d7"/>
              <path id="Path_19275" data-name="Path 19275" d="M284.9,331.619c-2.622.08-5.107,3.16-3.722,7.148,1.089,3.133,5.495,2.059,6.717-.589C289,335.785,288.153,331.519,284.9,331.619Z" transform="translate(-234.4 -312.721)" fill="#fff"/>
              <g id="Group_10937" data-name="Group 10937" transform="translate(48.619 23.978)">
                <path id="Path_19276" data-name="Path 19276" d="M283.048,333.335a1.831,1.831,0,0,0-1.367,2.625c.4,1.151,2.015.754,2.465-.216C284.551,334.865,284.243,333.3,283.048,333.335Z" transform="translate(-281.535 -333.335)" fill="#1e1e1e"/>
              </g>
              <path id="Path_19277" data-name="Path 19277" d="M288.549,332.925c-3.021-.012-5.589,3.938-3.305,8.752,1.53,3.231,6.755,1.84,8.169-1.429A5.263,5.263,0,0,0,288.549,332.925Z" transform="translate(-227.366 -310.16)" fill="#fff"/>
              <g id="Group_10938" data-name="Group 10938" transform="translate(58.201 28.006)">
                <path id="Path_19278" data-name="Path 19278" d="M286.347,334.7c-1.136-.006-2.1,1.479-1.246,3.29.577,1.216,2.545.692,3.074-.536A1.979,1.979,0,0,0,286.347,334.7Z" transform="translate(-284.773 -334.696)" fill="#1e1e1e"/>
              </g>
              <path id="Path_19279" data-name="Path 19279" d="M280.783,337.012a26.834,26.834,0,0,0,7.557,4.131,22.787,22.787,0,0,0,11.374,1.095s-.976,4.687-9.749,2.713C280.612,342.85,280.783,337.012,280.783,337.012Z" transform="translate(-234.388 -302.154)" fill="#1e1e1e"/>
              <g id="Group_10939" data-name="Group 10939" transform="translate(76.325 50.402)">
                <path id="Path_19280" data-name="Path 19280" d="M299.4,389.455c2.29,2.867,7.758,2.142,11.909-.855-1.435-6.267-5.169-13.723-6.083-24.961-1.116-13.658-5.258-25.129-12.543-20.215a4.378,4.378,0,0,0-1.527,2.278,36.009,36.009,0,0,1,2.914,9.368C295.1,361.387,296.125,385.357,299.4,389.455Z" transform="translate(-290.386 -342.265)" fill="#32c1d7"/>
                <path id="Path_19281" data-name="Path 19281" d="M293.2,368.7c2.027,10.566,4.346,24.189,6.717,27.849s12.72.834,12.5-6.3a20.779,20.779,0,0,0-.586-3.929c-4.151,3-9.619,3.722-11.909.855-3.278-4.1-4.305-28.068-5.329-34.385a36.009,36.009,0,0,0-2.914-9.368C290.063,348.063,291.155,358.044,293.2,368.7Z" transform="translate(-290.898 -339.99)" fill="#0ea1c4"/>
              </g>
              <path id="Path_19282" data-name="Path 19282" d="M284.313,340.256a11.131,11.131,0,0,1-2.778-6.93,14.959,14.959,0,0,1,1.071-4.681s1.577,4.876,3.293,5.9c.213-2.05-.326-2.7.257-4.669.914-3.074,2.352-4.03,2.352-4.03s.7,6.1,2.607,7.329a12.217,12.217,0,0,1,1.784-7.944s0,3.21,4.184,5.19c3.471,1.642,8.332,4.574,8.536,8.536C305.937,345.088,284.313,340.256,284.313,340.256Z" transform="translate(-232.915 -325.231)" fill="#32c1d7"/>
            </g>
            <g id="Group_10941" data-name="Group 10941" transform="translate(41.844 71.192)">
              <path id="Path_19283" data-name="Path 19283" d="M324.607,339.815a142.472,142.472,0,0,0-.556,19.863s-17.111,1.595-20.126.8c-9.885-2.616-19.194,4.651-21.387,6.163-9.4,6.489,3.054,11.8,15.581,7.82,2.562-.811,3.619-2.133,6-3.37,1.326-.692,6.681.207,14.078,1.438a65.724,65.724,0,0,0,15.975.388c3.261-.219,4.494-3.775,5.151-8.974,1.237-9.8,1.284-20.156.237-23.931C337.957,334.229,324.607,339.815,324.607,339.815Z" transform="translate(-279.245 -337.389)" fill="#ffc5b3"/>
            </g>
            <path id="Path_19284" data-name="Path 19284" d="M292.963,363.086c3.722,3.444,9.462,3.648,13.96,3.583,2.308-.036,6.43-1.154,8.086-4.083.941-16.223,2.364-27.538-7.548-31.373-5.435-2.1-12.5,10.832-13.729,17.833A113.241,113.241,0,0,0,292.963,363.086Z" transform="translate(-210.529 -278.742)" fill="#ff9801"/>
            <path id="Path_19285" data-name="Path 19285" d="M283.811,334.96c-.533.76-6.391,3.74-6.85,10.282s2.48,11.374,7.421,18.576,6.3,11.841,8.82,14.353c11.741,11.7,16.883.985,6.965-11.992-2.423-3.169-7.246-3.207-8.675-6.444-2.1-4.767-.515-9.027-1.533-10.824C285.015,345.242,283.811,334.96,283.811,334.96Z" transform="translate(-241.967 -270.955)" fill="#ffc5b3"/>
          </g>
        </g>
        <g id="Group_10952" data-name="Group 10952" transform="translate(397.556 317.628)">
          <g id="Group_10947" data-name="Group 10947" transform="translate(0 30.035)">
            <path id="Path_19286" data-name="Path 19286" d="M151.175,350.064l-10.125,6.157s4.116,10.087,10.125,11.767,9.036-1.009,9.036-1.009Z" transform="translate(-141.05 -246.066)" fill="#1096e8"/>
            <path id="Path_19287" data-name="Path 19287" d="M156.58,346.692s-11.726-3.846-13.259,2.417,1.453,14.85,4.222,17.688,9.036,0,9.036,0Z" transform="translate(-137.418 -254.961)" fill="#0ea1c4"/>
            <g id="Group_10946" data-name="Group 10946" transform="translate(5.903 11.161)">
              <path id="Path_19288" data-name="Path 19288" d="M195.137,365.237c-2.911-1.828-5.915-3.781-8.909-5.947-3.7-2.675-10.628-15.676-15.182-21.641S158.5,330.03,158.5,330.03c-11.395,4.018,2.71,26.627,2.71,26.627s12.344,9.59,15.966,12.33c5.228,3.956,9.125,3.278,16.584,3A53.917,53.917,0,0,0,195.137,365.237Z" transform="translate(-121.485 -296.471)" fill="#ffc5b3"/>
              <g id="Group_10944" data-name="Group 10944" transform="translate(32.612 117.38)">
                <path id="Path_19289" data-name="Path 19289" d="M173.468,387.276c-.361,6.817-3.2,28.074-3.468,40.906-.154,7.367,2.163,10.341,2.163,10.341,2.435,5.258,1.181,11.448-5.282,10.048-2.7-.583-4.921-3.485-6.589-6.66l-4.057-.213s1.326-37.3,1.05-50.413-3.219-32.358-3.219-32.358l17.576-.568S173.909,378.87,173.468,387.276Z" transform="translate(-154.067 -358.359)" fill="#ffc5b3"/>
              </g>
              <path id="Path_19290" data-name="Path 19290" d="M170.727,389.387s5.347,5.471,8.581,9.267,3.844,7.841,1.459,10.039c-3.036,2.8-7.3,2.953-15.62-3.571-7.8-6.113-10.347-12.56-10.347-12.56l.482-9.119s4.977,12.764,12.409,12.1C173.2,395.051,170.727,389.387,170.727,389.387Z" transform="translate(-120.019 -191.843)" fill="#32c1d7"/>
              <path id="Path_19291" data-name="Path 19291" d="M165.394,391.757c-.358,6.814-3.2,28.071-3.468,40.906-.151,7.365,2.166,10.338,2.166,10.338,2.435,5.258,1.181,11.448-5.282,10.051-2.707-.586-4.921-3.489-6.589-6.66l-4.057-.216s1.323-37.3,1.05-50.413-3.222-32.358-3.222-32.358l17.579-.565S165.838,383.351,165.394,391.757Z" transform="translate(-137.27 -232.202)" fill="#ffc5b3"/>
              <path id="Path_19292" data-name="Path 19292" d="M162.654,393.867s5.347,5.471,8.581,9.267,3.841,7.841,1.459,10.039c-3.036,2.8-7.3,2.956-15.623-3.571-7.794-6.113-10.344-12.56-10.344-12.56l.479-9.119s4.98,12.764,12.412,12.1C165.131,399.531,162.654,393.867,162.654,393.867Z" transform="translate(-135.833 -183.068)" fill="#32c1d7"/>
              <path id="Path_19293" data-name="Path 19293" d="M179.149,329.8s11.563,12.776,12.223,25.677c.394,7.723-.429,24.425,3.743,36.852,3.758,11.193,7.8,48.777,7.8,48.777s-10.051,15.522-31.745,15.365c-21.827-.16-28.124-12.155-28.124-12.155s2.69-29.032,5.24-38.338c2.406-8.782,6.465-15.785,5.654-24.07-1.855-18.892-4.252-39.14-4.252-39.14s8.7-7.009,12.054-8.56C165.816,332.329,179.149,329.8,179.149,329.8Z" transform="translate(-143.045 -296.918)" fill="#32c1d7"/>
              <g id="Group_10945" data-name="Group 10945" transform="translate(16.173)">
                <path id="Path_19294" data-name="Path 19294" d="M165.616,336.1l1.678,11.832s-2.985,6.551-10.942.612c-6.2-4.625-7.841-7.9-7.841-7.9a43.512,43.512,0,0,0,4.929-13.279C156.994,326.185,165.616,336.1,165.616,336.1Z" transform="translate(-148.511 -301.878)" fill="#ffa08d"/>
                <path id="Path_19295" data-name="Path 19295" d="M155.741,321.194c5.347-3.832,17.78-4.749,21.931,8.187,4.352,13.569-8.288,29.991-14.682,26.952-3.58-1.7-11.042-7.592-12.983-14.726C147.82,333.58,151.583,324.173,155.741,321.194Z" transform="translate(-146.84 -318.688)" fill="#ffc5b3"/>
              </g>
            </g>
            <path id="Path_19296" data-name="Path 19296" d="M146.727,348.741s8.01,6.264,17.289,4.418,21.256-6.424,21.256-6.424l.778,5.119s-17.348,6.856-24.464,6.856-14.859-5.551-14.859-5.551Z" transform="translate(-129.93 -252.587)" fill="#0ea1c4"/>
            <path id="Path_19297" data-name="Path 19297" d="M168.433,320.417s-2.48-6.835-9.486-5.267-9.137,9.19-8.687,13.223,1.006,8.178-.9,10.868-4.891.562-4.891.562,2.089,8.85,11.164,1.793S168.433,320.417,168.433,320.417Z" transform="translate(-134.347 -314.916)" fill="#1e1e1e"/>
            <path id="Path_19298" data-name="Path 19298" d="M162.143,319.109s-2.69-4.258-8.057-2.015-3.465,8.291-3.465,8.291Z" transform="translate(-122.944 -311.928)" fill="#32c1d7"/>
            <path id="Path_19299" data-name="Path 19299" d="M182.537,329.053c-3.66-6.536-5.438-15.632-20.247-10.7-19.366.559-13.948,26.544-9.741,33.05,2.107-4.826,7.125-6.021,10.32-7.752,2.977,1.7,4.347,2.355,7.057,2.355a5.649,5.649,0,0,0,4.6-3.24,4.969,4.969,0,0,1,1,3.24c5.539-1.42,7.693-2.444,8.936-4.891A10.182,10.182,0,0,0,182.537,329.053Z" transform="translate(-126.452 -310.945)" fill="#1e1e1e"/>
            <path id="Path_19300" data-name="Path 19300" d="M169.388,346.563a43.415,43.415,0,0,0,1.932,6.7c1.033,2.323,2.974,2.192,2.968-2.24,0-2.326-4.9-5.11-4.9-5.11Z" transform="translate(-85.54 -254.188)" fill="#ffc5b3"/>
            <path id="Path_19301" data-name="Path 19301" d="M156.468,330.425s-.941-7.314-4.5-3.835c-3.586,3.5.923,6.794.923,6.794Z" transform="translate(-122.383 -293.886)" fill="#ffc5b3"/>
            <path id="Path_19302" data-name="Path 19302" d="M150.972,333.59s2.8-8.294,14.637-11.729c8.729-2.533,12.025-2.379,13.35,1.988a32.089,32.089,0,0,0-14,2.009C159.863,327.657,150.972,333.59,150.972,333.59Z" transform="translate(-121.614 -304.557)" fill="#32c1d7"/>
          </g>
          <g id="Group_10948" data-name="Group 10948" transform="translate(237.795 158.246)">
            <path id="Path_19303" data-name="Path 19303" d="M248.481,412.529s-13.622-10.992-17.972-16.791c-6.672-8.894-7.146-20.173-8.566-22.268s.456-6.521.766-10.85c.364-5.069,7.308-5.87,10.013-1.669,4.784,7.43-3.042,8.2-2.852,13.824.124,3.666,2.231,8.01,6.134,12.276s18.516,14.173,18.516,14.173Z" transform="translate(-221.417 -358.247)" fill="#ffa08d"/>
            <path id="Path_19304" data-name="Path 19304" d="M246.578,399.418s-12.9-5.971-15.421-7.634-5.394-12.335-.846-16.644c.763-.722,4.057-4.6,4.057-4.6l15.146,6.888Z" transform="translate(-208.695 -334.174)" fill="#ea4e00"/>
            <path id="Path_19305" data-name="Path 19305" d="M246.265,377.317c-.831.281-11.412,3.048-15.685,11.09s4.042,17.315,4.042,17.315l12.667-8.64Z" transform="translate(-205.863 -320.893)" fill="#ea4e00"/>
            <path id="Path_19306" data-name="Path 19306" d="M237.109,395.62l1.3-20.342s7.906,2.855,10.4,9.229.009,17.753.009,17.753Z" transform="translate(-190.68 -324.887)" fill="#ff5c03"/>
            <path id="Path_19307" data-name="Path 19307" d="M248.725,364.264c-7.5.364-16.345,2.633-19.2,14.564-4.32,18.037,9.542,21.916,9.542,21.916v14.416h16.357l-.278-11.087Z" transform="translate(-207.176 -346.462)" fill="#ffc5b3"/>
            <path id="Path_19308" data-name="Path 19308" d="M232.2,376.593s4.355.482,6.018,3.329,2.08,11.087,2.08,11.087l-8.11-1.8Z" transform="translate(-200.314 -322.311)" fill="#ffa08d"/>
            <path id="Path_19309" data-name="Path 19309" d="M257.2,452.2c-1.556,3.7-5.142,3.358-12.395.749a62.546,62.546,0,0,1-16.315-8.318c-4.574-3.385-4.619-3.835-5.225-6.125-.846-3.2,3.69-4.489,11.61-2.586,11.045,2.654,21.026,9.98,22.132,9.5C257.482,448.532,258.133,449.976,257.2,452.2Z" transform="translate(-217.995 -207.837)" fill="#ff5c03"/>
            <path id="Path_19310" data-name="Path 19310" d="M266.349,446.717c-1.556,3.7-5.145,3.358-12.395.752a62.539,62.539,0,0,1-16.315-8.317c-4.574-3.385-4.619-3.835-5.225-6.125-.846-3.2,3.69-4.489,11.61-2.586,11.045,2.654,21.023,9.98,22.132,9.5C266.63,443.051,267.281,444.5,266.349,446.717Z" transform="translate(-200.075 -218.573)" fill="#ff5c03"/>
            <path id="Path_19311" data-name="Path 19311" d="M267.222,394.2a143.841,143.841,0,0,1,7.217,32.373c.5,5.287-1.024,15.859,0,28.02,2.346,27.878,3.373,51.487,3.373,51.487s-2.293,7.243-6.433,8.871c-8.122,3.19-14.833-5.128-14.833-5.128l-2.37-69.276-1.678.971-1.613,79.087a13.591,13.591,0,0,1-6.921,9.178c-4.944,2.494-10.823-1.429-14.59-4.577-4.5-25.322-.589-43.761-1.095-62.92-.183-6.933-.311-14.8-.417-16.5-.956-15.626-.53-37.11-.225-45.028C237.213,402.318,267.222,394.2,267.222,394.2Z" transform="translate(-210.118 -287.818)" fill="#1e1e1e"/>
            <path id="Path_19312" data-name="Path 19312" d="M255.974,406.744c-7.486-3.329-16.957-4.776-19.869-18.744-4.6-6.637-5.545-9.11-7.841-15.469,0,0,3.237.358,4.459-.441-.689-4.281-1.376-5.154,1.142-9.19,2.559,2.29,9.167.565,14.96,1.571,7.823,1.355,14.845,5.782,14.845,13.892C268.661,390.562,259.024,397.607,255.974,406.744Z" transform="translate(-208.006 -349.134)" fill="#1e1e1e"/>
            <path id="Path_19313" data-name="Path 19313" d="M230.081,372.343s2.207-4.033,4.355,0a8.154,8.154,0,0,1-.361,7.844Z" transform="translate(-204.447 -334.148)" fill="#ffc5b3"/>
          </g>
          <g id="Group_10949" data-name="Group 10949" transform="translate(53.57)">
            <path id="Path_19314" data-name="Path 19314" d="M340.2,405.8c-.181.136-.376.222-.565.34a.725.725,0,0,1-.251.275c-5.151,3.258-16.581,5.5-27.686.512l39.666,75.788-30.893,23.354a191.915,191.915,0,0,0-11.744-32.524,4.092,4.092,0,0,0-.417-.683c-.222-.459-.42-.923-.657-1.376-8.678-16.578-24.328-23.505-34.956-15.469s-12.211,27.988-3.533,44.566c.234.45.491.861.737,1.3a4.07,4.07,0,0,0,.34.763,167.912,167.912,0,0,0,19.3,26.8l-31.316,23.677-39.495-75.46c-1.181,13.96-7.7,25.153-12.321,29.275a.633.633,0,0,1-.323.157c-.166.151-.317.325-.494.459-6.566,4.962-18.4-3.468-26.446-18.833s-9.238-31.84-2.672-36.805a6.438,6.438,0,0,1,.562-.337.712.712,0,0,1,.254-.275c5.089-3.222,16.309-5.438,27.289-.675l-39.492-75.46,30.979-23.419a191.4,191.4,0,0,0,11.563,31.84,4.015,4.015,0,0,0,.417.686c.222.459.423.923.66,1.373,8.675,16.581,24.328,23.508,34.956,15.475s12.208-27.991,3.533-44.569c-.237-.45-.494-.861-.737-1.293a4.41,4.41,0,0,0-.34-.766,167.739,167.739,0,0,0-18.877-26.313l30.982-23.422,39.666,75.788c1.065-14.191,7.7-25.6,12.371-29.772a.621.621,0,0,1,.323-.157c.166-.151.317-.323.494-.459,6.563-4.962,18.4,3.471,26.446,18.833S346.763,400.842,340.2,405.8Z" transform="translate(-147.529 -304.765)" fill="#c62a87"/>
            <path id="Path_19315" data-name="Path 19315" d="M190.632,314.615l17.56-9.85v19.958l-14.507,5.711Z" transform="translate(-97.496 -304.765)" fill="#c62a87"/>
            <path id="Path_19316" data-name="Path 19316" d="M163.279,364.142l17.56-9.851,5.54,8.967-18.63,8.78Z" transform="translate(-151.077 -207.75)" fill="#c62a87"/>
            <path id="Path_19317" data-name="Path 19317" d="M239.51,380.7l-17.56,9.851-31.318,23.676,17.56-9.85Z" transform="translate(-97.496 -156.016)" fill="#ad1878"/>
            <path id="Path_19318" data-name="Path 19318" d="M208.5,330.425l18.713-10.553,6.472,8.238-24.091,16.6Z" transform="translate(-62.505 -275.173)" fill="#c62a87"/>
            <path id="Path_19319" data-name="Path 19319" d="M222.039,352.8l17.812-10.126-2.622-5.506-21.2,4.6Z" transform="translate(-47.746 -241.295)" fill="#c62a87"/>
            <path id="Path_19320" data-name="Path 19320" d="M193.368,378.742l-17.823,9.988-4.749-9.674,19.7-8.2Z" transform="translate(-136.351 -175.302)" fill="#c62a87"/>
            <path id="Path_19321" data-name="Path 19321" d="M172.956,330.5l17.56-9.85,1.679,19.8-24.269,11.706Z" transform="translate(-141.975 -273.657)" fill="#c62a87"/>
            <path id="Path_19322" data-name="Path 19322" d="M211.669,398.112l17.56-9.85,30.892-23.354-17.56,9.851Z" transform="translate(-56.289 -186.954)" fill="#ad1878"/>
            <path id="Path_19323" data-name="Path 19323" d="M334.263,409.133c-.178.136-.376.222-.562.34a.75.75,0,0,1-.251.275c-5.154,3.258-16.581,5.5-27.686.512l39.663,75.788L314.536,509.4a192.037,192.037,0,0,0-11.744-32.521,4.016,4.016,0,0,0-.417-.686c-.222-.459-.423-.92-.66-1.373-8.678-16.581-24.328-23.508-34.956-15.472s-12.211,27.988-3.533,44.569c.234.447.494.858.737,1.293a4.484,4.484,0,0,0,.34.763,167.758,167.758,0,0,0,19.306,26.8l-31.319,23.677L212.8,481c-1.184,13.96-7.7,25.153-12.324,29.275a.621.621,0,0,1-.322.157c-.166.151-.317.326-.491.459-6.566,4.962-18.407-3.468-26.449-18.833s-9.238-31.84-2.672-36.805c.18-.133.379-.222.565-.337a.726.726,0,0,1,.252-.275c5.092-3.222,16.312-5.438,27.292-.675L159.155,378.5l30.982-23.419a191.3,191.3,0,0,0,11.56,31.843,4.058,4.058,0,0,0,.42.686c.219.456.42.92.657,1.373,8.678,16.578,24.328,23.505,34.956,15.472s12.211-27.991,3.533-44.569c-.234-.447-.491-.861-.737-1.293a4.411,4.411,0,0,0-.34-.766,167.689,167.689,0,0,0-18.874-26.313l30.979-23.422,39.666,75.788c1.065-14.191,7.7-25.6,12.374-29.769a.591.591,0,0,1,.323-.157c.166-.151.314-.325.491-.459,6.566-4.965,18.4,3.468,26.446,18.83S340.828,404.171,334.263,409.133Z" transform="translate(-159.155 -298.244)" fill="#dd4599"/>
          </g>
          <g id="Group_10951" data-name="Group 10951" transform="translate(204.272 163.431)">
            <path id="Path_19324" data-name="Path 19324" d="M268.327,422.329s-13.087-11.09-19.022-12.785c-2.983-5.6-7.234-12.114-11.3-18.735s-8.539-11.611-9.471-17.718,2.772-11.167.4-10.927-4.355,3.885-4.542,6.761-2.275-3.326-8.809-7.1-5.468-1.8-5.385,6.7c.047,4.817,2.956,8.533,7.264,10.48s6.814,9.625,8.74,15.2,8.131,18.016,11.96,24.662,22.514,14.966,22.514,14.966Z" transform="translate(-210.088 -360)" fill="#ffc5b3"/>
            <g id="Group_10950" data-name="Group 10950" transform="translate(30.705 47.159)">
              <path id="Path_19325" data-name="Path 19325" d="M278.906,450.374c-5.873,4.663-17.049,7.486-23.967,7.9s-4.725-7.069-4.311-13.208,7.9-.512,12.892-.1,8.732-.414,8.672-4.157-4.1.414-13.56,0-8.163-11.374-10.359-15.664c-3.051-5.959-1.388-8.039,2.355-5.545s5.977,5.06,5.932.139-4.27-4.281-9.146-8.871-10.51-10.4-16.818-14.46c-4.193-2.7-7.847-9.459-9.835-13.7a14.827,14.827,0,0,1,6.3-6.773s8.294,3,17.149,7.276c8.616,4.157,10.377,4.264,10.377,4.264s14.14,4.953,16.161-2.947c3.406-.349,9.9-.184,11.2,7.761,1.281,7.844-1.639,31.169,2.669,52.573A46.483,46.483,0,0,1,278.906,450.374Z" transform="translate(-219.884 -375.938)" fill="#ff5c03"/>
              <path id="Path_19326" data-name="Path 19326" d="M266.1,460.652c-10.359,4.367-20.969,2.435-25.644-2.557-2.122-22.455,3.829-49.786,1.326-52.972-5.1-6.5-18.931-11-20.236-17.315a12.194,12.194,0,0,1-.2-9.581c1.988,4.24,5.643,11,9.835,13.7,6.308,4.063,11.945,9.871,16.818,14.46s9.1,3.95,9.146,8.871-2.19,2.355-5.932-.139-5.406-.414-2.355,5.545c2.2,4.29.9,15.247,10.359,15.664s13.5-3.743,13.56,0-3.684,4.574-8.672,4.157-12.475-6.042-12.892.1-2.607,13.626,4.311,13.208,18.093-3.237,23.967-7.9a46.485,46.485,0,0,0,5.711-5.509c.056.281.1.568.16.849C285.358,449.216,281.479,454.166,266.1,460.652Z" transform="translate(-220.465 -371.454)" fill="#ea4e00"/>
            </g>
          </g>
          <path id="Path_19327" data-name="Path 19327" d="M221.289,359.245c-2.136-2.926-13.821,3.178-15.211,2.84s3.48-3.193,2.592-4.521c-1.29-1.932-3.444-.278-7.634,3.823-1.515,1.482-2.042,3.808-6.267,4.441-5.427.814-14.4.722-20.44,1.337-3.9-6.3-10.17-21.026-14.359-25.5-4.619-4.932-11.037-9.167-13.078-7.134-8.3,8.264,6.773,29.958,14.91,39.329,3.08,3.551,5.711,6.305,8.942,7.368,2.077.684,4.767.991,5.687.713,7.119-2.145,16.454-6.2,19.262-7.261,7.486-2.814,14.309-1.681,16.821-2.9C218.407,368.927,224.987,364.317,221.289,359.245Z" transform="translate(-134.346 -247.481)" fill="#ffc5b3"/>
        </g>
        <g id="Group_10963" data-name="Group 10963" transform="translate(35.251 428.984)">
          <g id="Group_10954" data-name="Group 10954" transform="translate(72.755 85.653)">
            <path id="Path_19328" data-name="Path 19328" d="M44.569,417.645,44.444,445l13.006,6.987,10.715-24.286Z" transform="translate(-40.737 -280.66)" fill="#0086ac"/>
            <path id="Path_19329" data-name="Path 19329" d="M171.7,377.515v28.078l-50.274,8.578-7.79-20.238Z" transform="translate(94.807 -359.268)" fill="#0086ac"/>
            <path id="Path_19330" data-name="Path 19330" d="M43.211,399.551l.031,27.6H70.817l8.81-20.427Z" transform="translate(-43.151 -316.103)" fill="#0ea1c4"/>
            <path id="Path_19331" data-name="Path 19331" d="M137.95,419.119c12.4-2.586,24.008-7.012,30.118-10.255a1.706,1.706,0,0,0,.4-.281c.29-.151.589-.29.87-.45,10.193-5.885,9.69-15.717-1.121-21.961s-27.846-6.533-38.039-.648c-.275.16-.512.331-.772.5a2.289,2.289,0,0,0-.494.234c-5.631,3.536-13.321,10.261-17.794,17.44C119.8,409.29,128.771,414.385,137.95,419.119Z" transform="translate(89.864 -351.867)" fill="#0086ac"/>
            <g id="Group_10953" data-name="Group 10953" transform="translate(0 27.508)">
              <path id="Path_19332" data-name="Path 19332" d="M259.725,422.146c2.228-.216,4.474-.524,6.714-.9q-12.125-6.4-23.674-13.794a23.253,23.253,0,0,0-1.607,3.974l-53.31-30.781L126.267,416.2c15.981.225,31.846,5.086,38.826,8.687a1.146,1.146,0,0,1,.34.255c.249.127.518.24.755.379,8.829,5.1,5.864,15.075-6.622,22.283s-29.766,8.921-38.6,3.823c-.24-.139-.438-.3-.663-.441a1.562,1.562,0,0,1-.429-.192c-6.24-4.03-14.658-13.191-15.049-22.416L43.283,464.111l-.033-.018-.059.036.092.053,26.742,15.439,45.306-1.352v27.508l53.111,30.663.027-.015-.13-.077.047-.027,61.278-35.379c-15.785-.331-31.361-5.11-38.258-8.669a1.094,1.094,0,0,1-.337-.254c-.251-.127-.521-.243-.757-.379-8.829-5.1-5.864-15.072,6.622-22.283s29.766-8.921,38.6-3.823c.24.139.438.3.663.441a1.54,1.54,0,0,1,.432.192c6.163,3.983,14.445,12.975,15.013,22.088l61.3-35.391Z" transform="translate(-43.191 -380.645)" fill="#0ea1c4"/>
              <path id="Path_19333" data-name="Path 19333" d="M67.58,414.991l26.278,15.17c-16.031,1.648-32.965,7.779-40.823,11.948a1.771,1.771,0,0,0-.4.278c-.287.154-.589.29-.867.45-10.193,5.888-9.693,15.72,1.121,21.964s27.843,6.533,38.039.648c.275-.16.512-.331.772-.5a2.4,2.4,0,0,0,.491-.234c7.226-4.536,17.839-14.315,20.694-23.57V413.639Z" transform="translate(-40.746 -316.015)" fill="#0086ac"/>
            </g>
            <path id="Path_19334" data-name="Path 19334" d="M71.268,385.055v27.51l22.208-5.7,23.81-16.427L103.714,382.5Z" transform="translate(11.808 -349.502)" fill="#0ea1c4"/>
            <path id="Path_19335" data-name="Path 19335" d="M94.145,520.285a2.272,2.272,0,0,0,.491-.237c7.226-4.536,17.839-14.312,20.694-23.567l53.111,30.663.03-.018-.133-.074.047-.03,61.281-35.379c-15.788-.328-31.364-5.11-38.261-8.669a1.05,1.05,0,0,1-.337-.255c-.251-.127-.521-.24-.757-.376-8.829-5.1-5.864-15.075,6.622-22.283s29.766-8.921,38.6-3.826c.24.139.438.3.663.441a1.635,1.635,0,0,1,.432.2c6.163,3.98,14.445,12.974,15.013,22.088l61.3-35.391-53.209-30.722c16.2-1.559,33.447-7.791,41.4-12.013a1.707,1.707,0,0,0,.4-.278c.29-.151.589-.29.87-.45,10.193-5.888,9.69-15.72-1.121-21.963s-27.846-6.533-38.039-.645c-.275.157-.512.331-.772.494a2.3,2.3,0,0,0-.494.237c-7.308,4.589-18.105,14.546-20.807,23.9l-53.31-30.781L126.267,406.9c15.981.225,31.849,5.086,38.826,8.687a1.148,1.148,0,0,1,.34.254c.249.127.518.24.755.379,8.829,5.1,5.864,15.072-6.622,22.28s-29.766,8.921-38.6,3.826c-.24-.139-.438-.3-.663-.441a1.753,1.753,0,0,1-.429-.192c-6.24-4.03-14.658-13.191-15.049-22.416L43.283,454.814l-.033-.018-.059.035.092.05L96.3,485.495c-16.031,1.648-32.965,7.776-40.823,11.948a1.683,1.683,0,0,0-.4.278c-.287.151-.589.29-.867.45-10.193,5.885-9.693,15.717,1.121,21.961s27.843,6.536,38.039.648C93.648,520.622,93.885,520.448,94.145,520.285Z" transform="translate(-43.191 -371.348)" fill="#32c1d7"/>
            <path id="Path_19336" data-name="Path 19336" d="M113.639,431.147v27.51l61.3-35.39v-27.51Z" transform="translate(94.807 -323.537)" fill="#0086ac"/>
            <path id="Path_19337" data-name="Path 19337" d="M146.814,412v27.51L85.487,474.921l.048-27.537Z" transform="translate(39.66 -291.709)" fill="#0086ac"/>
          </g>
          <g id="Group_10956" data-name="Group 10956" transform="translate(0 56.792)">
            <g id="Group_10955" data-name="Group 10955" transform="translate(0 27.508)">
              <path id="Path_19338" data-name="Path 19338" d="M238.332,472.113l50.147-28.952-.222-.13-.047.03.13.074-.027.018L235.2,412.49c-2.855,9.255-13.469,19.031-20.691,23.567a2.438,2.438,0,0,1-.494.237c-.26.163-.5.334-.772.494-10.2,5.885-27.224,5.6-38.039-.648s-11.318-16.075-1.121-21.961c.278-.16.58-.3.867-.45a1.851,1.851,0,0,1,.4-.281c7.859-4.169,24.792-10.3,40.823-11.945l-53.02-30.612L101.9,406.255c-.571-9.116-8.853-18.108-15.016-22.091a1.626,1.626,0,0,0-.432-.192c-.222-.145-.42-.3-.663-.441-8.826-5.1-26.106-3.385-38.592,3.823s-15.454,17.188-6.625,22.283c.24.139.506.252.757.379a1.094,1.094,0,0,0,.337.255c6.9,3.56,22.475,8.341,38.261,8.669L18.6,454.345l53.472,30.873c2.707-9.347,13.5-19.295,20.8-23.884a2.363,2.363,0,0,1,.494-.234c.257-.166.494-.337.769-.5,10.2-5.885,27.227-5.6,38.039.648s11.315,16.076,1.121,21.961c-.278.163-.58.3-.867.45a1.849,1.849,0,0,1-.4.281c-7.947,4.216-25.18,10.445-41.371,12.007l53.191,30.71L205.447,491.1V463.589Z" transform="translate(-18.602 -370.891)" fill="#cc3e00"/>
              <path id="Path_19339" data-name="Path 19339" d="M96.8,452.145a1.533,1.533,0,0,0,.432.192c.222.148.42.3.663.441,8.829,5.1,26.106,3.385,38.592-3.823s15.454-17.185,6.625-22.283c-.24-.136-.506-.252-.757-.379a1.094,1.094,0,0,0-.337-.254c-6.98-3.6-22.848-8.462-38.826-8.684l11.448-6.61L81.75,402.22v27.508C82.138,438.954,90.558,448.115,96.8,452.145Z" transform="translate(105.095 -309.522)" fill="#ea4e00"/>
            </g>
            <path id="Path_19340" data-name="Path 19340" d="M121.5,403.257v29.562l-15.258,8.809L95.289,416.867Z" transform="translate(131.617 -279.982)" fill="#ea4e00"/>
            <path id="Path_19341" data-name="Path 19341" d="M111.508,371.939v27.51L76.082,392.5l-4.048-20.561Z" transform="translate(86.063 -341.329)" fill="#cc3e00"/>
            <path id="Path_19342" data-name="Path 19342" d="M132.61,385.984V413.5l-29.367,2.565s-6.43-21.786-5-22.144S132.61,385.984,132.61,385.984Z" transform="translate(136.997 -313.818)" fill="#cc3e00"/>
            <path id="Path_19343" data-name="Path 19343" d="M24.323,371.972v28.4l17.6,2.778s12.856-23.81,13.333-24.523S24.323,371.972,24.323,371.972Z" transform="translate(-7.395 -341.265)" fill="#cc3e00"/>
            <path id="Path_19344" data-name="Path 19344" d="M92.875,452.037a2.236,2.236,0,0,1,.494-.237c.257-.163.494-.334.769-.494,10.2-5.885,27.227-5.6,38.039.648s11.315,16.075,1.121,21.961c-.278.16-.58.3-.867.45a1.747,1.747,0,0,1-.4.278c-7.947,4.219-25.18,10.448-41.371,12.01l53.191,30.71L205.447,481.8c.388,9.226,8.808,18.386,15.046,22.416a1.725,1.725,0,0,0,.432.192c.222.145.42.3.663.441,8.829,5.1,26.106,3.385,38.592-3.823s15.454-17.188,6.625-22.283c-.24-.139-.506-.252-.757-.379a1.093,1.093,0,0,0-.337-.254c-6.98-3.6-22.848-8.462-38.826-8.687l61.594-35.562-.222-.127-.047.027.133.077-.03.015L235.2,403.19c-2.855,9.255-13.469,19.034-20.691,23.57a2.432,2.432,0,0,1-.494.234c-.26.166-.5.337-.772.5-10.2,5.885-27.224,5.6-38.039-.648s-11.315-16.075-1.121-21.961c.278-.163.58-.3.867-.453a1.841,1.841,0,0,1,.4-.278c7.859-4.172,24.792-10.3,40.823-11.948l-53.02-30.609L101.9,396.955c-.571-9.113-8.853-18.108-15.016-22.088a1.538,1.538,0,0,0-.432-.192c-.222-.148-.42-.3-.663-.441-8.826-5.1-26.106-3.385-38.592,3.823s-15.454,17.185-6.625,22.283c.24.136.506.251.757.379a1.093,1.093,0,0,0,.337.255c6.9,3.556,22.475,8.338,38.261,8.669L18.6,445.048l53.472,30.873C74.782,466.574,85.57,456.623,92.875,452.037Z" transform="translate(-18.602 -361.594)" fill="#ff5c03"/>
            <path id="Path_19345" data-name="Path 19345" d="M96.146,434.569,42.956,403.86v27.51l53.19,30.709Z" transform="translate(29.104 -278.801)" fill="#ea4e00"/>
            <path id="Path_19346" data-name="Path 19346" d="M72.074,420.671v27.51L18.6,417.309V389.8Z" transform="translate(-18.602 -306.345)" fill="#ea4e00"/>
          </g>
          <g id="Group_10959" data-name="Group 10959" transform="translate(276.68 35.059)">
            <path id="Path_19347" data-name="Path 19347" d="M139.784,415.461a26.38,26.38,0,0,1,9.025-3.423,78.51,78.51,0,0,1-1.621-7.924,83.253,83.253,0,0,0-10.8-31.441c-5.811-9.388-10.51-6.808-10.51-6.808-12.409,4.379,5.19,32.432,5.19,32.432s5.477,6.237,7.462,11.637Q139.164,412.81,139.784,415.461Z" transform="translate(-93.825 -332.131)" fill="#ffa08d"/>
            <g id="Group_10957" data-name="Group 10957" transform="translate(65.171 116.362)">
              <path id="Path_19348" data-name="Path 19348" d="M148.588,428.994c1.6-13.773,1.553-22.277,2.16-30.435-3.281-5.4-9.362-5.305-15.836-4.707.219,2.888.376,5.728.429,8.335.169,8.158,1.562,28.192,1.192,40.619-.092,3.054-1.666,5.45-2.053,7.232-.657,3.027,3.971,4.539,3.971,4.539,1.728,3.284,4.018,6.288,6.82,6.891,6.687,1.447,7.983-4.959,5.465-10.4,0,0-1.349-1.3-3.521-7.888C146.916,442.276,148.455,430.145,148.588,428.994Z" transform="translate(-133.59 -393.576)" fill="#ffa08d"/>
              <path id="Path_19349" data-name="Path 19349" d="M136.394,411.375s-1.275,2.731-2.1,4.876,1.882,6.231,4.16,8.406a113.656,113.656,0,0,0,9.492,8.223c4.317,3.409,11.4,6.7,14.747,4.157,3.252-2.474.538-8.11-2.278-12.034s-10.684-11.525-10.684-11.525,2.616,3.577-1.651,5.323c-3.607,1.473-6.788-.53-8.717-2.551A21.056,21.056,0,0,1,136.394,411.375Z" transform="translate(-134.137 -358.71)" fill="#1e1e1e"/>
              <path id="Path_19350" data-name="Path 19350" d="M135.9,415.786a81.623,81.623,0,0,0,9.8,8.953c5.625,4.323,8.785,4.329,11.255,3.11,4.125-2.033-11.276-16.218-11.276-16.218S142.2,411.093,135.9,415.786Z" transform="translate(-130.68 -358.244)" fill="#ffcb37"/>
              <path id="Path_19351" data-name="Path 19351" d="M148.665,412.717a23.321,23.321,0,0,0-8.758,3.7c-3.521,2.74-3.823,3.616-3.823,3.616l1.408,1.539a22.193,22.193,0,0,1,6.77-5.4,20.206,20.206,0,0,1,5.885-1.932Z" transform="translate(-130.324 -356.081)" fill="#1e1e1e"/>
            </g>
            <g id="Group_10958" data-name="Group 10958" transform="translate(39.729 131.145)">
              <path id="Path_19352" data-name="Path 19352" d="M139.99,433.99c1.595-13.773,1.55-22.277,2.157-30.435-3.281-5.394-9.362-5.305-15.836-4.708.219,2.888.376,5.731.429,8.335.172,8.158,1.562,28.195,1.192,40.619-.089,3.054-1.663,5.45-2.051,7.231-.66,3.027,3.971,4.539,3.971,4.539,1.725,3.284,4.018,6.287,6.817,6.891,6.687,1.447,7.986-4.959,5.468-10.4,0,0-1.352-1.3-3.524-7.888C138.316,447.272,139.857,435.141,139.99,433.99Z" transform="translate(-124.99 -398.572)" fill="#ffa08d"/>
              <path id="Path_19353" data-name="Path 19353" d="M127.795,416.371s-1.275,2.731-2.1,4.876,1.882,6.234,4.163,8.406a112.939,112.939,0,0,0,9.489,8.223c4.32,3.409,11.4,6.7,14.75,4.157,3.252-2.474.536-8.11-2.281-12.034s-10.681-11.525-10.681-11.525,2.613,3.58-1.654,5.323c-3.607,1.474-6.788-.533-8.714-2.55A21,21,0,0,1,127.795,416.371Z" transform="translate(-125.538 -363.706)" fill="#1e1e1e"/>
              <path id="Path_19354" data-name="Path 19354" d="M127.3,420.782a81.737,81.737,0,0,0,9.794,8.953c5.625,4.323,8.788,4.329,11.255,3.11,4.125-2.033-11.273-16.217-11.273-16.217S133.606,416.089,127.3,420.782Z" transform="translate(-122.08 -363.241)" fill="#ffcb37"/>
              <path id="Path_19355" data-name="Path 19355" d="M140.066,417.713a23.3,23.3,0,0,0-8.755,3.7c-3.524,2.74-3.826,3.616-3.826,3.616l1.408,1.539a22.193,22.193,0,0,1,6.77-5.4,20.322,20.322,0,0,1,5.885-1.932Z" transform="translate(-121.725 -361.077)" fill="#1e1e1e"/>
            </g>
            <path id="Path_19356" data-name="Path 19356" d="M115.811,440.2c-.9,11.418,7.409,18.443,19.262,24.656a21.025,21.025,0,0,1,7.483,6.566c1.994,2.388.13,6.033,1.908,8.761,4.693,1.477,14.664,6.119,24.413,1.843,15.611-6.847,24.57-11.88,26.807-18.765,1.059-3.264-1.547-18.9-4.024-20.916-3.678-2.994-10.063-6.507-18.425-10.625-9.77-4.811-15.1-6.589-17.86-9.217-.24-2.136-2.006-8.495.222-16.729,2.275-8.418.3-13.084-1.024-16.318-3.018-7.412-10.835-22.685-10.835-22.685l-19.534,4.19-10.951,9.516s4.672,29.121,5.758,35.926C120.407,425.132,116.569,430.518,115.811,440.2Z" transform="translate(-109.871 -329.718)" fill="#ffcb37"/>
            <path id="Path_19357" data-name="Path 19357" d="M134.029,374.407l1.737,12.247s-6.406,6.782-12.33,1.4-6.717-7.8-6.717-7.8l3.471-16.525Z" transform="translate(-103.083 -335.685)" fill="#ffa08d"/>
            <path id="Path_19358" data-name="Path 19358" d="M135.772,358.334s2.784,8.433,1.216,27.846a38.94,38.94,0,0,1-4.131,14.265s-4.178-11.56-10.175-15.377c-4.222-2.687,2.1-7.717,2.1-7.717Z" transform="translate(-94.251 -346.247)" fill="#1e1e1e"/>
            <path id="Path_19359" data-name="Path 19359" d="M120.7,358.934c5.071-4.441,17.652-6.613,23.171,6.163,5.788,13.4-5.465,31.393-12.282,28.932-3.82-1.379-12.013-6.64-14.7-13.717C113.864,372.344,116.763,362.382,120.7,358.934Z" transform="translate(-105.212 -351.856)" fill="#ffc5b3"/>
            <path id="Path_19360" data-name="Path 19360" d="M135.6,367.745s.541,8.859-3.6,15.206-4.219,12.084-4.077,18.6c.246,11.312,3.27,14.688,3.27,14.688a25.2,25.2,0,0,1-15.753-21.49c-1.485-15.96-1.16-28.55,2.953-34.5,3.743-5.418,11.193-4.116,11.193-4.116s9.661-7.2,17.614,6.575c3.589,6.214,1.713,13.9.228,16.218C143.828,371.195,135.6,367.745,135.6,367.745Z" transform="translate(-107.169 -354.249)" fill="#1e1e1e"/>
            <path id="Path_19361" data-name="Path 19361" d="M144.123,408.03s-5.072-17.428-7.7-27.553a24.977,24.977,0,0,0-5.125,1.639,17.655,17.655,0,0,0-3.808,2.13c2.586,10.619,8.649,23.659,10.676,28.038-.814,2.8-4.666,8.418-3.494,9.8,1.574,1.852,3.065,1.13,3.065,1.13s2.559,3.151,4.361,2.923,5.625-2.249,5.172-5.625S144.123,408.03,144.123,408.03Z" transform="translate(-81.985 -302.872)" fill="#ffa08d"/>
            <path id="Path_19362" data-name="Path 19362" d="M124.2,413.982s10.063,4.441,21.02,2.018,31.308-17.428,31.308-17.428.79,8.746-1.059,11.25-6.436.95-7.033,3.157-.595,4.915-4.885,7.169c-2.7,1.414-8.344.467-9.88,1.355s-2.666,4.693-5.128,5.323c-5.909,1.509-8.622-2.249-10.738-2.252s-4.29,2.814-7.912,2.252c-2.574-.4-6.737-3.592-6.737-3.592Z" transform="translate(-90.474 -267.427)" fill="#ff5c03"/>
            <path id="Path_19363" data-name="Path 19363" d="M115.569,387.569s8.882,4.228,16.913,3.317c8.169-.926,18.718-6.554,18.718-6.554l.509,3.776s-6.086,4.444-17.883,6.376-18.7-3.6-18.7-3.6Z" transform="translate(-106.202 -295.321)" fill="#ff5c03"/>
            <path id="Path_19364" data-name="Path 19364" d="M116.667,371.06s-3.616,2.172-4.421,5.714,2.012,18.694,7.51,29.151c1.556,2.962,3.864,8.714,8.468,14.167,7.258,8.593,17.389,14.815,21.162,16.785,6.169,3.216,9.522,7.128,12.874,9.945s10.054,3.349,9.921-.269-4.645-7.687-7.687-9.675-10.88-4.672-10.88-4.672-14.705-18.883-17.232-21.277-5.341-11.507-6.3-15.6C127.4,383.937,121.49,372.394,116.667,371.06Z" transform="translate(-112.111 -321.318)" fill="#ffa08d"/>
          </g>
          <g id="Group_10962" data-name="Group 10962" transform="translate(26.387)">
            <path id="Path_19365" data-name="Path 19365" d="M64,352.586a46.866,46.866,0,0,0-8.149,10.752c-3.151,6.015-9.894,16.037-13.33,19.762s-6.5,14.463-5.876,18.295,7.163,14.1,7.163,14.1,6.9-20,8.45-21.736,9.527-13.945,14.069-20.679Z" transform="translate(-9.802 -322.447)" fill="#ffa08d"/>
            <path id="Path_19366" data-name="Path 19366" d="M68.981,354.855s14.066,5.548,20,17.647,5.012,39.442,5.586,46.389-9.6,8.69-16.469,10.7a22.43,22.43,0,0,1-18.286-2.231c-4.628-3.015-12.646-10.785-12.646-10.785s9.359-6.814,5.714-15.176c-3.977-9.116-7.817-22.632-7.717-27.461a53.216,53.216,0,0,1,5.391-21.348Z" transform="translate(7.035 -322.447)" fill="#dd4599"/>
            <path id="Path_19367" data-name="Path 19367" d="M51.132,361.325c-5.844.308-5.9,10.081-.784,16.386,6.036,7.433,15.072,6.4,13.779-3.533S55.331,361.1,51.132,361.325Z" transform="translate(9.903 -305.35)" fill="#c62a87"/>
            <path id="Path_19368" data-name="Path 19368" d="M104.459,398.764c-.9,5.669-1.908,9.356-5.767,14.9-4.873,7.012-11.616,8.779-19.138,7.456-6.021-1.059-14.759-6.388-19.511-10.306-10.954-9.028-16-15.753-16-15.753L39.326,365.8s5.415-2.048,10.075,1.157c2.414,1.663,4.373,3.681,7.2,5.912.982.775.982-.107,2.252-.012,11.093.849,22.413,10.1,25.544,12.924a50.188,50.188,0,0,1,11.19,15.72A29.923,29.923,0,0,0,104.459,398.764Z" transform="translate(-4.394 -297.826)" fill="#1e1e1e"/>
            <g id="Group_10961" data-name="Group 10961" transform="translate(45.833)">
              <g id="Group_10960" data-name="Group 10960">
                <path id="Path_19369" data-name="Path 19369" d="M49.635,359.731l-1.476,10.421s5.453,5.77,10.492,1.189,5.716-6.637,5.716-6.637l-2.956-14.063Z" transform="translate(-32.924 -326.257)" fill="#ffa08d"/>
                <path id="Path_19370" data-name="Path 19370" d="M65.167,346.02c-5.054-3.624-16.8-4.491-20.727,7.737-4.116,12.821,7.832,28.34,13.877,25.47,3.382-1.61,10.433-7.175,12.267-13.918C72.65,357.722,69.093,348.834,65.167,346.02Z" transform="translate(-41.863 -339.952)" fill="#ffc5b3"/>
                <path id="Path_19371" data-name="Path 19371" d="M44.691,360.265c2.1,2.021,5.246,4.693,11.25,3.054,9.853-2.693,12.445-.95,13.933-.2,1.681.849,1.858,4.636,1.858,4.636a13.78,13.78,0,0,0,2.95-12.5c-1.189-4.7-7.844-13.85-16.72-12.764s-13.883,7.122-14.836,12.244A6.256,6.256,0,0,0,44.691,360.265Z" transform="translate(-43.01 -342.4)" fill="#1e1e1e"/>
              </g>
            </g>
            <path id="Path_19372" data-name="Path 19372" d="M90.356,356.939s-5.539,1.317-7.442,6.364-.663,18.448-.755,20.966,1.432,11.454,1.432,11.454-16.368,13.247-21.635,16.288-18.561-9.767-21.472-8.439-1.272,11.418,2.95,13.575,12.081,3.059,21.685,2.654c15.424-.657,29.784-13.821,31.287-15.774s1.175-26.2,1.115-32.5S97.007,356.6,90.356,356.939Z" transform="translate(-5.005 -313.938)" fill="#ffc5b3"/>
            <path id="Path_19373" data-name="Path 19373" d="M67.2,368.518c-6.367,2.767-9.773,22.369-12.557,34.042-2.743,11.492-5.3,23.99-7.086,27.5s-8.021,7-13.368,13.5,1.293,7.513,6.788,7.137c4.5-.308,6.483-4.418,9.658-7.578,3.119-3.1,5.894-2.639,6.749-5.495.891-2.979.151-4.867,1.716-7.838,5.03-9.539,12.918-24.263,15.253-28.834,3.58-7,5.935-13.646,6.367-21.348C81.142,372.021,74.183,365.485,67.2,368.518Z" transform="translate(-18.32 -292.727)" fill="#ffc5b3"/>
            <path id="Path_19374" data-name="Path 19374" d="M60.78,366.132c-6.1,3.305-9.3,20.641-12.09,32.314-2.743,11.5-4.752,23.958-6.536,27.464s-7.779,4.808-13.128,11.309c-2.246,2.728-1.542,3.906-.686,5.645,1.181,2.4,3.391,4.785,5.2,4.009,4.142-1.775,6.483-5.4,9.658-8.557,3.119-3.1,5.894-2.639,6.749-5.495.888-2.979.151-4.867,1.716-7.838,5.03-9.539,12.918-24.263,15.253-28.834,3.577-7,6.211-12.9,6.64-20.6C73.98,367.972,65.991,363.309,60.78,366.132Z" transform="translate(-27.52 -297.543)" fill="#ffa08d"/>
          </g>
        </g>
        <g id="Group_10964" data-name="Group 10964" transform="translate(207.37 342.426)">
          <path id="Path_19375" data-name="Path 19375" d="M115.36,390.269a38.608,38.608,0,0,1-3.944-.2,1.48,1.48,0,0,1,.3-2.944,36.333,36.333,0,0,0,8.5-.145,1.456,1.456,0,0,1,1.666,1.263,1.481,1.481,0,0,1-1.266,1.666A39.714,39.714,0,0,1,115.36,390.269Zm-12.433-2.133a1.46,1.46,0,0,1-.494-.086,38.357,38.357,0,0,1-8.246-4.1,1.48,1.48,0,0,1,1.627-2.474,35.412,35.412,0,0,0,7.61,3.79,1.478,1.478,0,0,1-.5,2.87Zm26.056-.447a1.48,1.48,0,0,1-.544-2.855,35.868,35.868,0,0,0,7.477-4.045,1.479,1.479,0,1,1,1.707,2.414,38.779,38.779,0,0,1-8.1,4.382A1.457,1.457,0,0,1,128.983,387.688Zm-40.755-9.2a1.471,1.471,0,0,1-1.08-.467,38.511,38.511,0,0,1-5.441-7.427,1.477,1.477,0,1,1,2.574-1.45A35.921,35.921,0,0,0,89.307,376a1.478,1.478,0,0,1-1.08,2.488Zm55.112-.947a1.478,1.478,0,0,1-1.115-2.45,35.875,35.875,0,0,0,4.79-7.027,1.479,1.479,0,0,1,2.624,1.364,38.626,38.626,0,0,1-5.184,7.6A1.464,1.464,0,0,1,143.339,377.54ZM79.6,363.174a1.483,1.483,0,0,1-1.423-1.08,38.682,38.682,0,0,1-1.4-9.1,1.478,1.478,0,0,1,1.426-1.527,1.5,1.5,0,0,1,1.53,1.429,35.727,35.727,0,0,0,1.3,8.4A1.477,1.477,0,0,1,80,363.118,1.431,1.431,0,0,1,79.6,363.174Zm71.835-1.24a1.563,1.563,0,0,1-.349-.042A1.481,1.481,0,0,1,150,360.106,35.714,35.714,0,0,0,151,351.664c0-.825-.027-1.648-.086-2.459a1.482,1.482,0,0,1,1.376-1.577,1.45,1.45,0,0,1,1.58,1.376c.059.882.089,1.763.089,2.66a38.775,38.775,0,0,1-1.089,9.14A1.486,1.486,0,0,1,151.434,361.935ZM79,345.6a1.326,1.326,0,0,1-.3-.033,1.474,1.474,0,0,1-1.148-1.743,38.25,38.25,0,0,1,2.932-8.732,1.478,1.478,0,1,1,2.669,1.269,35.422,35.422,0,0,0-2.7,8.057A1.481,1.481,0,0,1,79,345.6Zm71.743-3.713a1.477,1.477,0,0,1-1.408-1.03,35.65,35.65,0,0,0-3.527-7.734,1.479,1.479,0,1,1,2.524-1.541,38.537,38.537,0,0,1,3.823,8.379,1.475,1.475,0,0,1-1.411,1.926ZM86.55,329.722A1.476,1.476,0,0,1,85.4,327.31a38.579,38.579,0,0,1,6.616-6.4,1.478,1.478,0,1,1,1.787,2.355,35.762,35.762,0,0,0-6.11,5.912A1.481,1.481,0,0,1,86.55,329.722Zm55.043-2.843a1.486,1.486,0,0,1-1.047-.432,35.764,35.764,0,0,0-6.684-5.255,1.477,1.477,0,1,1,1.536-2.524,38.533,38.533,0,0,1,7.24,5.687,1.476,1.476,0,0,1-1.044,2.524Zm-41.045-7.788a1.478,1.478,0,0,1-.592-2.835,38.323,38.323,0,0,1,8.82-2.639,1.48,1.48,0,1,1,.5,2.917,35.48,35.48,0,0,0-8.143,2.432A1.444,1.444,0,0,1,100.548,319.091Zm26.02-1.349a1.554,1.554,0,0,1-.444-.068,35.691,35.691,0,0,0-8.356-1.571,1.48,1.48,0,1,1,.2-2.953,38.616,38.616,0,0,1,9.045,1.7,1.478,1.478,0,0,1-.447,2.888Z" transform="translate(-76.773 -313.146)" fill="#fff"/>
        </g>
        <g id="Group_10965" data-name="Group 10965" transform="translate(691.87 341.739)">
          <path id="Path_19376" data-name="Path 19376" d="M285.39,397.842a1.479,1.479,0,0,1-.086-2.956,39.553,39.553,0,0,0,8.424-1.4,1.478,1.478,0,1,1,.8,2.846,42.165,42.165,0,0,1-9.051,1.5Zm-8.844-.441a1.584,1.584,0,0,1-.234-.018,42.258,42.258,0,0,1-8.859-2.42,1.479,1.479,0,0,1,1.086-2.752,39.482,39.482,0,0,0,8.234,2.249,1.48,1.48,0,0,1-.228,2.941Zm25.8-4.305a1.481,1.481,0,0,1-.7-2.787,39.669,39.669,0,0,0,7.054-4.814,1.481,1.481,0,1,1,1.92,2.255,42.7,42.7,0,0,1-7.583,5.172A1.462,1.462,0,0,1,302.341,393.1Zm-42.184-2.151a1.468,1.468,0,0,1-.826-.252,42.86,42.86,0,0,1-7.018-5.909,1.479,1.479,0,1,1,2.136-2.045,39.943,39.943,0,0,0,6.533,5.5,1.479,1.479,0,0,1-.825,2.707Zm55.585-9.279a1.477,1.477,0,0,1-1.178-2.373,39.524,39.524,0,0,0,4.4-7.32,1.48,1.48,0,0,1,2.687,1.243,42.532,42.532,0,0,1-4.728,7.868A1.485,1.485,0,0,1,315.742,381.666Zm-67.761-3.447a1.483,1.483,0,0,1-1.263-.707,42.516,42.516,0,0,1-3.906-8.3,1.479,1.479,0,1,1,2.8-.968,39.715,39.715,0,0,0,3.636,7.729,1.478,1.478,0,0,1-1.263,2.249Zm75.149-12.545a1.434,1.434,0,0,1-.314-.036,1.475,1.475,0,0,1-1.13-1.758,39.969,39.969,0,0,0,.911-8.489,1.471,1.471,0,0,1,.024-.26,1.243,1.243,0,0,1-.027-.257,39.465,39.465,0,0,0-1.024-8.477,1.481,1.481,0,0,1,2.885-.669,42.664,42.664,0,0,1,1.1,9.11,1.448,1.448,0,0,1-.024.278,1.375,1.375,0,0,1,.027.275,42.954,42.954,0,0,1-.979,9.119A1.479,1.479,0,0,1,323.13,365.674Zm-80.871-4.11a1.482,1.482,0,0,1-1.468-1.311,43.463,43.463,0,0,1-.272-4.861,42.361,42.361,0,0,1,.216-4.311,1.506,1.506,0,0,1,1.618-1.326,1.478,1.478,0,0,1,1.323,1.618,40.6,40.6,0,0,0,.056,8.545,1.477,1.477,0,0,1-1.3,1.636A1.649,1.649,0,0,1,242.259,361.564Zm1.781-17.519a1.387,1.387,0,0,1-.462-.077,1.475,1.475,0,0,1-.944-1.867,42.225,42.225,0,0,1,3.8-8.356,1.478,1.478,0,1,1,2.542,1.509,39.412,39.412,0,0,0-3.533,7.773A1.485,1.485,0,0,1,244.04,344.044Zm76.039-4.858a1.476,1.476,0,0,1-1.334-.84,39.389,39.389,0,0,0-4.494-7.258,1.481,1.481,0,1,1,2.335-1.823,42.609,42.609,0,0,1,4.829,7.8,1.479,1.479,0,0,1-1.334,2.119Zm-67.062-10.3a1.476,1.476,0,0,1-1.08-2.485,42.7,42.7,0,0,1,6.941-6,1.479,1.479,0,0,1,1.681,2.435,40.008,40.008,0,0,0-6.462,5.58A1.458,1.458,0,0,1,253.017,328.883Zm56.236-3.583a1.473,1.473,0,0,1-.944-.343,39.729,39.729,0,0,0-7.119-4.719,1.48,1.48,0,0,1,1.358-2.63,42.587,42.587,0,0,1,7.649,5.074,1.479,1.479,0,0,1-.944,2.619ZM267.5,318.876a1.48,1.48,0,0,1-.562-2.849,42.367,42.367,0,0,1,8.823-2.533,1.482,1.482,0,0,1,.5,2.92,38.947,38.947,0,0,0-8.2,2.352A1.492,1.492,0,0,1,267.5,318.876Zm26.1-1.672a1.525,1.525,0,0,1-.379-.047,39.585,39.585,0,0,0-8.439-1.284,1.481,1.481,0,0,1,.127-2.959,42.563,42.563,0,0,1,9.069,1.382,1.479,1.479,0,0,1-.379,2.909Z" transform="translate(-240.519 -312.914)" fill="#fff"/>
        </g>
      </g>
    </g>
  </g>
</svg>
